<?xml version="1.0" encoding="utf-8"?>
<!-- Generator: Adobe Illustrator 22.1.0, SVG Export Plug-In . SVG Version: 6.00 Build 0)  -->
<svg version="1.1" id="katman_1" xmlns="http://www.w3.org/2000/svg" xmlns:xlink="http://www.w3.org/1999/xlink" x="0px" y="0px"
	 viewBox="0 0 309.7 319.7" style="enable-background:new 0 0 309.7 319.7;" xml:space="preserve">
<style type="text/css">
	.st0{fill-rule:evenodd;clip-rule:evenodd;fill:#DA0912;}
	.st1{fill-rule:evenodd;clip-rule:evenodd;fill:#E20117;}
	.st2{fill-rule:evenodd;clip-rule:evenodd;fill:#BAB8BA;}
	.st3{fill-rule:evenodd;clip-rule:evenodd;fill:#E3000F;}
</style>
<path class="st0" d="M36.9,280.5v-5.8c0-3.6-4.7-5.3-14.1-5.3c-5.6,0-9.4,0.3-11.4,0.9C8.4,271,7,272.6,7,275v5.4H36.9z M43.7,285.2
	c0,2.9-0.6,4.3-1.9,4.3H7.2v0.3c0,4.5,1.8,7.4,5.3,8.7c0.8,0.3,1.9,0.5,3.3,0.6c1.5,0.1,3.3,0.2,5.6,0.2c1.7,0,2.6,1.6,2.6,4.9
	c0,2.6-0.9,3.9-2.6,3.9c-2.3,0-4.2,0-5.7-0.1c-1.5,0-2.6-0.1-3.4-0.3c-3.8-0.6-6.6-1.9-8.4-4.1c-2.6-3-3.9-6.5-3.9-10.6v-17.5
	c0-5.5,2-9.5,5.9-12.2c2.7-1.9,6.3-2.9,10.7-2.9l13,0c3.6,0,6.7,0.9,9.1,2.7c3.3,2.3,5,5.8,5,10.4V285.2z"/>
<path class="st0" d="M74.2,283.2c0,2.6-0.9,3.9-2.6,3.9H50c-1.3,0-2.1-0.3-2.3-0.9c-0.2-0.5-0.3-1.7-0.3-3.6c0-2.6,0.9-3.9,2.6-3.9
	h21.6c1.2,0,2,0.3,2.3,0.9C74.1,280.1,74.2,281.3,74.2,283.2"/>
<path class="st0" d="M116.5,293.3v-23.5H95.6c-6.2,0-9.3,2.1-9.3,6.2v16.8c0,3.1,1.2,5.1,3.5,5.9c1,0.4,3,0.6,6,0.6h10
	C112.9,299.4,116.5,297.4,116.5,293.3 M123.5,293.5c0,5.1-2.1,8.9-6.3,11.6c-3,2-6.5,3-10.7,3H95.9c-10.7,0-16.3-4.5-16.6-13.4
	c-0.1-1.6-0.1-3.7-0.1-6.2c0-5.2,0.1-9.4,0.2-12.7c0.4-9.8,5.9-14.8,16.4-14.8h20.8v-9.3c0-2.6,0.9-3.9,2.6-3.9c1.2,0,2.2,0.1,3,0.4
	c0.9,0.5,1.4,1.7,1.4,3.5V293.5z"/>
<path class="st0" d="M136.2,304.2c0,2.6-0.9,3.9-2.6,3.9c-1.7,0-2.7-0.1-3-0.3c-0.9-0.5-1.4-1.7-1.4-3.6v-39.9
	c0-2.6,0.9-3.9,2.6-3.9c1.7,0,2.6,0.1,2.9,0.3c0.9,0.5,1.4,1.7,1.4,3.5V304.2z M137.2,254.2c0,1.7-0.5,3.1-1.5,4.1
	c-0.8,0.9-1.9,1.3-3.1,1.3c-1.2,0-2.2-0.4-3.1-1.3c-1-1-1.5-2.3-1.5-4.1c0-1.7,0.5-3.1,1.5-4.1c0.8-0.9,1.9-1.3,3.1-1.3
	c1.2,0,2.2,0.4,3.1,1.3C136.7,251.1,137.2,252.5,137.2,254.2z"/>
<path class="st0" d="M161.2,265.6c0,2.6-1,3.9-3.1,3.9c-0.3,0-0.7,0-1.3,0c-0.5-0.1-0.9-0.1-1.2-0.1c-5.3,0-8,2-8,6v28.9
	c0,1.9-0.5,3.1-1.4,3.6c-0.4,0.2-1.4,0.3-3,0.3c-1.6,0-2.5-1.3-2.5-4v-28.8c0-6.2,2.1-10.4,6.4-12.6c2.6-1.4,6.4-2.1,11.6-2.1
	C160.4,260.7,161.2,262.3,161.2,265.6"/>
<path class="st0" d="M199.8,280.5v-5.8c0-3.6-4.7-5.3-14.1-5.3c-5.6,0-9.4,0.3-11.4,0.9c-2.9,0.8-4.4,2.4-4.4,4.9v5.4H199.8z
	 M206.6,285.2c0,2.9-0.6,4.3-1.9,4.3h-34.6v0.3c0,4.5,1.8,7.4,5.3,8.7c0.8,0.3,1.9,0.5,3.3,0.6c1.5,0.1,3.3,0.2,5.6,0.2
	c1.7,0,2.6,1.6,2.6,4.9c0,2.6-0.9,3.9-2.6,3.9c-2.3,0-4.2,0-5.7-0.1c-1.5,0-2.6-0.1-3.4-0.3c-3.8-0.6-6.6-1.9-8.4-4.1
	c-2.6-3-3.9-6.5-3.9-10.6l0-17.5c0-5.5,2-9.5,5.9-12.2c2.7-1.9,6.3-2.9,10.7-2.9l13,0c3.6,0,6.7,0.9,9.1,2.7c3.3,2.3,5,5.8,5,10.4
	V285.2z"/>
<path class="st0" d="M247.4,304.5c0,2.4-1,3.7-2.9,3.7c-1.8,0-3-0.2-3.4-0.4l-23.8-17.9v14.4c0,1.8-0.5,3-1.4,3.6
	c-0.3,0.2-1.3,0.3-2.9,0.3c-1.7,0-2.6-1.3-2.6-3.9v-52.5c0-2.6,0.9-3.9,2.6-3.9c1.6,0,2.6,0.1,3,0.3c0.9,0.5,1.3,1.7,1.3,3.6l0,27.4
	h0l23.4-17.6c0.6-0.3,1.6-0.4,3.2-0.4c2,0,2.9,1.2,2.9,3.6c0,1.6-0.6,2.8-1.8,3.7l-21.3,15.9l21.8,16.4
	C246.8,301.6,247.4,302.9,247.4,304.5"/>
<path class="st0" d="M295.3,304.2c0,2.6-1.1,3.9-3.2,3.9h-25.7c-4.9,0-8.5-0.7-10.7-2.1c-3.7-2.2-5.6-6.3-5.6-12.2v-18.7
	c0-9.6,4.9-14.4,14.8-14.4h27.6c1.8,0,2.7,1.5,2.7,4.4c0,2.9-0.9,4.4-2.7,4.4h-27.1c-5.6,0-8.4,1.8-8.4,5.3l0,18.6c0,4,3.2,6,9.5,6
	h26.2C294.5,299.4,295.3,301,295.3,304.2"/>
<path class="st0" d="M306.8,304.2c0,2.6-0.9,3.9-2.6,3.9c-1.7,0-2.7-0.1-3-0.3c-0.9-0.5-1.4-1.7-1.4-3.6v-39.9
	c0-2.6,0.9-3.9,2.6-3.9c1.7,0,2.6,0.1,2.9,0.3c0.9,0.5,1.4,1.7,1.4,3.5L306.8,304.2z M307.7,254.2c0,1.7-0.5,3.1-1.4,4.1
	c-0.8,0.9-1.9,1.3-3.1,1.3c-1.2,0-2.2-0.4-3.1-1.3c-1-1-1.4-2.3-1.4-4.1c0-1.7,0.5-3.1,1.4-4.1c0.8-0.9,1.9-1.3,3.1-1.3
	c1.2,0,2.2,0.4,3.1,1.3C307.3,251.1,307.7,252.5,307.7,254.2z"/>
<path class="st1" d="M161.2,225.5c-0.2,0-0.4,0-0.6,0c-0.5,0-1-0.1-1.4-0.1c-6-0.8-10.5-5.3-11.8-10.9c-0.1-0.5-0.2-1-0.3-1.5
	c-0.2-1.3-0.2-2.6,0-3.9c0.5-3.5,2.2-6.5,4.5-8.7c0.1-0.1,0.2-0.2,0.3-0.3c-0.1,0.1-0.2,0.2-0.3,0.4c-1.5,1.9-2.5,4.3-2.9,6.9
	c-0.3,1.8-0.1,3.6,0.2,5.2c0.1,0.3,0.2,0.6,0.3,1c1.4,4.8,5.3,8.6,10.3,9.8c0.4,0.1,0.8,0.2,1.3,0.2c0.5,0.1,1.1,0.1,1.6,0.1
	c3.6,0.1,7-1.2,9.6-3.5C169.5,223.5,165.5,225.5,161.2,225.5 M166.2,192.2c-0.7-0.2-1.4-0.3-2.1-0.4c0,0-0.1,0-0.1,0
	c-5.6-0.8-10.9,0.9-15,4.3c-3.6,3-6.2,7.4-6.9,12.4c-0.2,1.1-0.2,2.3-0.2,3.4c0.3,9.1,6.7,16.9,15.8,18.6c0.3,0.1,0.6,0.1,0.9,0.2
	c0.8,0.1,1.7,0.2,2.5,0.2c3,0,6-0.7,8.6-1.9c0.3-0.1,0.6-0.3,0.9-0.5c3.1-1.7,5.7-4.3,7.5-7.4c0.6-1,1-2,1.4-3.1
	c0.5-1.3,0.8-2.6,1-4c0.8-5.5-0.8-10.8-4-14.9C173.9,195.7,170.4,193.3,166.2,192.2z M181.8,192.5c3.5,3.9,5.8,8.9,6.7,14.2
	L274.1,83L181.8,192.5z M134.3,205.2c1.5-6.7,5.3-12.4,10.4-16.3L33.6,2L134.3,205.2z"/>
<path class="st2" d="M170.9,185c4.3,1.6,8,4.2,10.9,7.5L274.1,83L170.9,185z M144.7,188.8L144.7,188.8c4.3-3.3,9.6-5.3,15.3-5.6
	L33.6,2L144.7,188.8z"/>
<path class="st3" d="M275.7,309.2c2.5,0,4.6,2.4,4.6,5.3c0,2.9-2,5.3-4.6,5.3c-2.5,0-4.6-2.4-4.6-5.3
	C271.2,311.5,273.2,309.2,275.7,309.2"/>
</svg>
