<?xml version="1.0" encoding="utf-8"?>
<!-- Generator: Adobe Illustrator 22.1.0, SVG Export Plug-In . SVG Version: 6.00 Build 0)  -->
<svg version="1.1" id="Layer_1" xmlns="http://www.w3.org/2000/svg" xmlns:xlink="http://www.w3.org/1999/xlink" x="0px" y="0px"
	 viewBox="0 0 283.5 283.5" style="enable-background:new 0 0 283.5 283.5;" xml:space="preserve">
<style type="text/css">
	.st0{fill:#00703C;}
	.st1{fill:#FFFFFF;}
	.st2{fill:#BF1818;}
</style>
<path class="st0" d="M0.6,0.6c94.5,0,189,0,283.5,0c0,94.5,0,189,0,283.5c-94.5,0-189,0-283.5,0C0.6,189.6,0.6,95.1,0.6,0.6z"/>
<path class="st1" d="M10.2,274.5c-0.1-0.7-0.1-262.2-0.1-264c0-0.1,0-0.2,0-0.3c0.1,0,0.1-0.1,0.2-0.1c87.9,0,175.7,0,263.6,0
	c0.2,0,0.4,0,0.6,0c0,0.1,0.1,0.3,0.1,0.4c0,0.2,0,0.4,0,0.6c0,87.4,0,174.8,0,262.3c0,0.3,0,0.7,0,1.1c-0.2,0-0.3,0.1-0.4,0.1
	c-0.2,0-0.4,0-0.6,0c-87.4,0-174.9,0-262.3,0C10.8,274.6,10.5,274.6,10.2,274.5z M265,265.1c0.1-0.3,0.1-0.6,0.1-0.9
	c0-81.2,0-162.3,0-243.5c0-0.2,0-0.5,0-0.7c0-0.1-0.1-0.3-0.1-0.4c-0.4,0-0.7,0-1,0c-81.1,0-162.2,0-243.3,0c-0.2,0-0.4,0-0.6,0
	c-0.1,0-0.3,0-0.4,0.1c0,0.4,0,0.7,0,1c0,81.2,0,162.3,0,243.5c0,0.2,0,0.4,0,0.6c0,0.1,0,0.3,0.1,0.4c81.7,0,163.3,0,245,0
	C264.8,265.1,264.9,265.1,265,265.1z"/>
<path class="st1" d="M44.6,117.9c-0.6-0.2-1-0.3-1.5-0.5c0.1-0.2,0.1-0.4,0.2-0.6c1.2-3.2,2.4-6.4,3.7-9.7c0.5-1.3,1.2-2.6,2-3.8
	c0.4-0.5,0.8-1,1.2-1.5c0.9-0.9,2-1.2,3.3-1.2c2.4,0.1,3.8,2,4.1,3.8c0.2,1,0.2,1.9,0.1,2.9c0,0.1,0,0.2,0,0.2
	c0.2,0.1,0.2-0.1,0.3-0.1c0.8-0.7,1.7-1.2,2.7-1.4c1-0.3,2.1-0.4,3.1-0.5c0.9-0.1,1.8-0.3,2.8-0.4c0.4-0.1,0.9-0.1,1.3-0.1
	c0.7-0.1,1.4-0.2,1.8-0.9c0.2,0,0.3,0,0.4,0c0.3,0.1,0.6,0.1,1,0.2c0,0.1,0,0.3-0.1,0.4c-0.7,1.9-1.5,3.7-2.2,5.6
	c0,0.1-0.1,0.2-0.1,0.3c-0.4,0.1-0.7,0.1-1.1,0.2c-2.3,0.3-4.7,0.5-7,0.8c-0.9,0.1-1.7,0.2-2.6,0.3c-0.6,0.1-1.3,0.8-1.3,1.5
	c0,0.3,0.2,0.5,0.4,0.7c0.1,0.1,0.3,0.1,0.5,0.2c1.9,0.7,3.9,1.4,5.8,2.1c1,0.4,1.5,0,1.8-0.7c0.2-0.3,0.4-0.7,0.5-1.1
	c0.5,0,0.8,0.3,1.2,0.4c0.1,0.3,0,0.4-0.1,0.6c-0.9,2.5-1.9,5.1-2.8,7.6c-0.2,0.5-0.4,1.1-0.6,1.6c0,0.1-0.1,0.2-0.2,0.4
	c-0.5-0.1-0.9-0.3-1.4-0.5c0-0.2,0-0.3,0.1-0.4c0.1-0.3,0.2-0.6,0.3-0.9c0-0.2,0.1-0.4,0.1-0.5c0.1-0.7,0-0.9-0.7-1.1
	c-2.2-0.9-4.4-1.8-6.7-2.7c-2.6-1-5.2-2-7.8-3c-0.2-0.1-0.4-0.1-0.6-0.2c-0.4-0.1-0.8,0-1,0.3c-0.2,0.4-0.4,0.8-0.6,1.2
	C44.8,117.4,44.8,117.6,44.6,117.9z M55.3,113c0.1-0.1,0.2-0.2,0.3-0.3c0.4-0.9,0.7-1.8,0.6-2.8c-0.1-1.2-0.5-2.2-1.5-2.8
	c-0.8-0.6-1.8-1-2.8-1c-0.1,0-0.2,0-0.3,0c-1.1-0.1-2,0.4-2.7,1.3c-0.4,0.6-0.7,1.2-1,1.8c-0.1,0.2-0.1,0.4-0.1,0.5
	c0,0.4,0.1,0.6,0.5,0.8c0.1,0.1,0.3,0.1,0.4,0.2c1.9,0.8,3.7,1.5,5.7,2.1C54.6,112.8,55,112.9,55.3,113z M176.6,56.9
	c0.2,0.2,0.3,0.4,0.4,0.5c0.7,0.7,1.1,1.6,1.3,2.7c0.3,1.8,0.6,3.6,1,5.4c0.1,0.5,0.2,1,0.3,1.5c0.1,0.7,0.4,1.2,1.1,1.6
	c0,0.5,0.1,0.9,0,1.4c-0.1,0-0.2,0-0.4,0c-1.3-0.3-5.4-1.5-5.9-1.7c-0.1-0.7-0.2-1.4-0.3-2c-0.4-2.8-0.9-5.6-1.3-8.3
	c0-0.2-0.1-0.5-0.1-0.7c0-0.4-0.2-0.7-0.6-0.8c-0.3-0.1-0.6-0.2-0.9-0.3c-0.4-0.1-0.5,0-0.7,0.4c-0.6,1.6-1.2,3.2-1.8,4.8
	c-0.2,0.5-0.4,1-0.6,1.5c-0.3,0.7,0,1.2,0.5,1.5c0.4,0.2,0.8,0.4,1.1,0.5c0.1,0.1,0.3,0.1,0.5,0.2c-0.1,0.3-0.2,0.5-0.3,0.7
	c-0.1,0.1-0.1,0.3-0.2,0.4c-0.6-0.1-9.5-3.1-10.2-3.5c0-0.4,0.1-0.8,0.3-1.2c0.4,0.1,0.7,0.1,1,0.2c0.4,0,0.7,0.1,1.1,0.1
	c0.4,0,0.6-0.2,0.7-0.5c0-0.1,0.1-0.3,0.1-0.4c1.7-4.8,3.4-9.7,5.2-14.5c0.3-0.8,0.3-1.3-0.7-1.9c-0.2-0.1-0.5-0.2-0.8-0.4
	c-0.2-0.1-0.3-0.2-0.5-0.3c0.1-0.5,0.2-0.8,0.5-1.2c0.2,0.1,0.4,0.1,0.6,0.2c2.2,0.8,4.4,1.5,6.7,2.3c0.9,0.3,1.8,0.6,2.7,0.9
	c1.8,0.6,3.6,1.4,5.1,2.6c0.5,0.4,1,0.9,1.3,1.4c0.7,1,0.9,2.1,0.5,3.3c-0.5,1.6-1.5,2.6-3.1,3.1c-0.9,0.3-1.9,0.4-2.9,0.4
	C177.3,56.8,177,56.8,176.6,56.9z M171.3,54.5c0.2,0.1,0.3,0.2,0.4,0.2c0.8,0.3,1.6,0.5,2.5,0.6c0.2,0,0.4,0,0.6,0
	c1.1-0.3,2-0.9,2.5-1.9c0.3-0.6,0.6-1.3,0.7-2c0.4-1.5-0.1-2.7-1.5-3.5c-0.6-0.4-1.2-0.6-1.9-0.8c-0.7-0.2-1-0.1-1.2,0.7
	c0,0.1-0.1,0.2-0.1,0.3c-0.5,1.6-1.1,3.3-1.6,4.9C171.6,53.5,171.4,53.9,171.3,54.5z M90.6,56.3c-0.2-0.4-0.5-0.8-0.7-1.1
	c0.1-0.3,0.3-0.3,0.5-0.4c1.5-0.7,3-1.4,4.4-2c1.5-0.7,3-1.4,4.5-2.1c0.9-0.4,1.8-0.9,2.6-1.3c0.9-0.4,1.8-0.7,2.8-0.8
	c0.8-0.1,1.5,0,2.2,0.2c0.6,0.2,1,0.5,1.4,0.9c1,1,1.4,2.2,1.1,3.6c-0.1,0.5-0.3,0.9-0.5,1.3c-0.6,1.1-1.5,1.8-2.5,2.5
	c-0.3,0.2-0.7,0.5-1,0.7c-0.2,0.1-0.4,0.3-0.4,0.6c0.2,0,0.4-0.1,0.6-0.1c1.1-0.3,2.2-0.6,3.3-0.7c1.3-0.1,2.6-0.1,3.8,0.5
	c1.1,0.5,1.9,1.3,2.3,2.4c0.8,1.8,0.5,3.5-0.7,5.1c-0.8,1-1.7,1.8-2.7,2.5c-1.1,0.8-2.3,1.4-3.5,1.9c-2,0.9-3.9,1.9-5.9,2.8
	c-1,0.5-2.1,1-3.1,1.4c-0.1,0-0.2,0-0.3,0.1c-0.2-0.5-0.4-0.9-0.5-1.5c0.3-0.1,0.5-0.2,0.8-0.3c0.3-0.2,0.6-0.4,0.9-0.6
	c0.3-0.2,0.3-0.5,0.2-0.9c-0.1-0.2-0.2-0.4-0.2-0.6c-2.1-4.7-4.2-9.3-6.3-14c0-0.1-0.1-0.1-0.1-0.2c-0.3-0.6-0.6-0.8-1.3-0.6
	c-0.4,0.1-0.7,0.3-1.1,0.4C91,56.1,90.8,56.2,90.6,56.3z M106,69.4c0.4-0.1,0.8-0.2,1.1-0.3c0.8-0.3,1.4-0.8,2-1.4
	c0.6-0.7,1-1.5,1.1-2.4c0.2-1.8-0.9-4.4-3.2-5.4c-0.5-0.2-1-0.4-1.6-0.3c-0.8,0.1-1.5,0.2-2.3,0.5c-0.3,0.1-0.6,0.2-0.9,0.4
	c-0.4,0.2-0.4,0.4-0.3,0.7c0.3,0.6,0.6,1.3,0.9,1.9c0.8,1.8,1.6,3.6,2.4,5.4C105.4,68.9,105.6,69.2,106,69.4z M101.6,51.6
	c-1-0.1-1.9,0.3-2.7,0.7c-0.7,0.3-0.8,0.5-0.5,1.3c0.7,1.6,1.4,3.3,2.1,4.9c0.1,0.1,0.1,0.3,0.2,0.4c0.1,0.2,0.3,0.3,0.6,0.3
	c0.1,0,0.3-0.1,0.4-0.1c0.7-0.4,1.4-0.8,2-1.4c0.2-0.3,0.5-0.6,0.6-0.9c0.5-0.9,0.6-1.8,0.2-2.8c-0.2-0.5-0.4-0.9-0.7-1.4
	C103.3,51.9,102.6,51.5,101.6,51.6z M96.6,209.4c0,1.8-0.4,3.3-1.1,4.7c-1.3,2.7-3.4,4.7-5.9,6.1c-1.2,0.7-2.6,1.1-4,1.3
	c-1.1,0.1-2.2,0.1-3.3-0.1c-1.3-0.3-2.5-0.9-3.5-1.8c-0.7-0.7-1.5-1.4-2-2.2c-1.1-1.6-1.7-3.5-1.7-5.4c0-1.6,0.4-3.2,1.1-4.7
	c0.9-1.8,2-3.5,3.6-4.8c1.5-1.2,3.1-2.1,5-2.5c1.7-0.4,3.4-0.2,5,0.4c1.9,0.7,3.5,1.9,4.8,3.4C95.7,205.2,96.6,207.4,96.6,209.4z
	 M78.1,215.7c0,0.5,0.1,0.9,0.4,1.4c0.9,1.5,2.6,2.2,4.3,1.6c1.3-0.5,2.4-1.2,3.3-2.2c1.5-1.5,2.9-3.1,4.3-4.7
	c0.9-1,1.7-2.1,2.4-3.3c0.3-0.5,0.5-1,0.7-1.5c0.3-1.1,0.2-2.1-0.6-3c-0.4-0.4-0.8-0.8-1.4-1.1c-0.7-0.3-1.4-0.4-2.2-0.2
	c-0.6,0.2-1.2,0.4-1.7,0.8c-1,0.7-2,1.5-2.9,2.3c-1.7,1.7-3.2,3.5-4.6,5.4c-0.6,0.7-1.1,1.5-1.4,2.4C78.3,214.3,78.1,215,78.1,215.7
	z M64.7,80.1c0-2.5,0.9-4.6,2.6-6.4c0.4-0.4,0.7-0.8,1.1-1.1c2-1.8,4.3-2.5,6.9-2.3c1.5,0.1,2.9,0.6,4.2,1.3c0.5,0.3,1,0.6,1.4,0.9
	c1.7,1.1,2.9,2.6,3.9,4.3c0.7,1.1,1.1,2.3,1.3,3.6c0.4,2.6,0,5-1.5,7.1c-1,1.5-2.3,2.7-4,3.5c-1.5,0.7-3,0.9-4.6,0.8
	c-2.3-0.2-4.4-1.1-6.2-2.4c-1-0.7-1.9-1.5-2.7-2.5c-1.2-1.4-2-3.1-2.3-4.9C64.8,81.3,64.7,80.7,64.7,80.1z M83.6,85.2
	c0-0.4-0.2-0.9-0.4-1.4c-0.3-0.7-0.7-1.4-1.2-2c-0.8-1.1-1.8-2-2.7-3c-1.6-1.6-3.4-3-5.2-4.4c-0.7-0.5-1.5-1-2.3-1.2
	c-1.3-0.4-2.4-0.1-3.3,0.9c-0.1,0.2-0.3,0.3-0.4,0.5c-0.6,0.8-0.8,1.8-0.6,2.8c0.1,0.6,0.4,1.2,0.7,1.7c0.4,0.6,0.8,1.1,1.2,1.6
	c0.9,1.2,2,2.2,3,3.2c0.8,0.8,1.7,1.5,2.5,2.3c0.7,0.7,1.6,1.3,2.4,1.8c0.6,0.4,1.3,0.7,2.1,0.8c1,0.2,1.9-0.1,2.6-0.8
	c0.3-0.3,0.5-0.6,0.8-0.9C83.4,86.6,83.6,86,83.6,85.2z M227.9,195.8c0,0,0.1-0.1,0.1-0.1c2.5-5.5,5-11,7.5-16.5
	c0.1-0.2,0.1-0.3,0.2-0.5c0,0,0,0,0-0.1c0,0,0,0,0-0.1c-0.1-0.1-0.2-0.2-0.4-0.2c-0.5-0.3-0.9-0.5-1.4-0.8c-1.1-0.7-2.2-1.5-3.3-2.2
	c-0.2-0.1-0.4-0.3-0.6-0.3c-0.4,0.5-0.7,0.9-1,1.5c0.2,0.2,0.3,0.4,0.5,0.6c0.7,0.8,1.3,1.7,1.8,2.6c0.7,1.4,0.9,2.9,0.3,4.4
	c-0.3,0.8-0.7,1.7-1.1,2.5c0,0.1-0.1,0.2-0.2,0.3c-0.4,0.6-0.7,0.7-1.4,0.4c-1.6-0.7-3.1-1.4-4.7-2.1c-0.6-0.3-1.2-0.5-1.7-0.8
	c-0.5-0.3-0.7-0.5-0.5-1.1c0-0.1,0-0.2,0.1-0.3c0.3-0.8,0.7-1.6,1.2-2.3c0.5-0.6,1.1-0.8,1.8-0.7c0.5,0.1,1,0.3,1.5,0.4
	c0.2,0,0.3,0.1,0.5,0.1c0.1-0.5,0.4-1,0.4-1.5c-0.6-0.3-1.2-0.5-1.7-0.8c-0.6-0.3-1.2-0.5-1.8-0.8c-0.6-0.3-1.1-0.6-1.7-0.8
	c-0.6-0.3-1.1-0.7-1.7-1c-0.3,0.5-0.5,0.9-0.7,1.4c0.1,0.1,0.3,0.2,0.4,0.3c0.3,0.2,0.6,0.4,0.8,0.7c0.4,0.4,0.7,0.9,0.6,1.6
	c0,0.4-0.1,0.7-0.2,1.1c-0.2,0.8-0.7,1.4-1.1,2.1c-0.2,0.4-0.5,0.4-0.8,0.2c-1.3-0.6-2.6-1.2-3.9-1.9c-0.6-0.3-1.2-0.6-1.8-0.9
	c-0.5-0.2-0.5-0.5-0.4-1c0-0.1,0.1-0.3,0.2-0.4c0.3-0.7,0.6-1.4,0.9-2c0.2-0.5,0.5-1,0.8-1.5c0.5-0.9,1.3-1.5,2.3-1.8
	c0.4-0.1,0.8-0.2,1.2-0.2c0.6,0,1.2,0,1.7,0c0.2,0,0.4,0,0.5,0c0.2-0.5,0.4-0.9,0.5-1.4c-0.2-0.1-0.3-0.2-0.5-0.2
	c-1.5-0.5-3-1.1-4.4-1.9c-0.1,0-0.2-0.1-0.3-0.1c-0.1,0.1-0.1,0.2-0.2,0.3c-2.6,5.6-5.1,11.1-7.7,16.7c0,0,0,0,0,0.1c0,0,0,0,0,0.1
	c0.6,0.5,0.7,0.5,1.2,0.6c0.1-0.2,0.2-0.4,0.3-0.6c0.2-0.3,0.4-0.7,0.6-0.9c0.6-0.7,1-0.7,1.7-0.4c2.5,1.2,5,2.4,7.4,3.5
	c2.1,1,4.2,2,6.3,3c0.2,0.1,0.3,0.2,0.5,0.3c0.3,0.2,0.5,0.5,0.5,0.9c0,0.5-0.2,0.9-0.4,1.3c-0.1,0.3-0.2,0.5-0.4,0.8
	c0.1,0.1,0.2,0.2,0.4,0.2C227.1,195.5,227.5,195.7,227.9,195.8C227.9,195.8,227.9,195.8,227.9,195.8z M128.7,62.7
	c1.1-0.1,2.1-0.1,3.2-0.2c1.1-0.1,2.2-0.1,3.3-0.2c1.6-0.1,3.2-0.2,4.8-0.3c1.2-0.1,2.3-0.1,3.5-0.2c1-0.1,2-0.1,3-0.2
	c0.1,0,0.3-0.1,0.4-0.1c0-0.1,0-0.2,0-0.3c-0.1-1.9,0-3.9,0.2-5.8c0-0.2,0-0.4,0-0.5c-0.5-0.1-0.9-0.2-1.4-0.2
	c-0.1,0.1-0.2,0.3-0.2,0.4c-0.2,0.4-0.4,0.8-0.5,1.2c-0.4,0.8-0.8,1.6-1.4,2.3c-0.8,1-1.9,1.7-3.2,1.9c-0.9,0.1-1.8,0.2-2.6,0.3
	c-0.4,0-0.7,0-1.1-0.1c-0.5-0.1-0.7-0.3-0.8-0.8c0-0.1,0-0.3,0-0.4c-0.1-2.2-0.3-4.3-0.4-6.5c0-0.1,0-0.3,0-0.4
	c0-0.3,0.1-0.5,0.3-0.6c0.3-0.1,0.6-0.3,0.9-0.3c0.7,0,1.5-0.1,2.2,0c0.8,0.1,1.4,0.5,1.7,1.3c0.2,0.5,0.3,0.9,0.4,1.4
	c0,0.1,0.1,0.3,0.2,0.4c0.5-0.1,1-0.1,1.4-0.3c0-0.2,0-0.4,0-0.6c-0.1-0.6-0.1-1.2-0.2-1.7c-0.2-1.7-0.4-3.3-0.2-5
	c0-0.1,0-0.1,0-0.2c-0.5-0.1-1-0.1-1.4,0c-0.1,0.3-0.1,0.7-0.2,1c0,0.2-0.1,0.4-0.2,0.6c-0.2,0.5-0.5,0.9-1.1,1.2
	c-0.3,0.1-0.5,0.2-0.8,0.3c-0.5,0.1-1.1,0.2-1.6,0.4c-0.2,0.1-0.4,0.1-0.6,0c-0.7-0.1-1-0.4-1-1.1c-0.1-1.5-0.1-3-0.2-4.5
	c0-0.5-0.1-1-0.1-1.5c0-0.4,0.1-0.6,0.5-0.7c0.2,0,0.3-0.1,0.5-0.1c1-0.1,1.9-0.2,2.9-0.3c0.7-0.1,1.4,0,2,0.1
	c1.1,0.2,1.9,0.9,2.5,1.8c0.3,0.5,0.6,1,0.8,1.5c0.1,0.2,0.2,0.4,0.3,0.6c0.4,0,0.8,0,1.2,0c0.1,0,0.1,0,0.2-0.1
	c0.1-0.7-0.1-1.3-0.2-1.9c0-0.7-0.1-1.3-0.2-1.9c0-0.6-0.1-1.3-0.1-1.9c-0.1,0-0.1-0.1-0.2-0.1c-6.2,0.5-12.3,1-18.5,1.5
	c-0.1,0-0.1,0-0.2,0.1c-0.1,0.6-0.1,0.7,0,1.2c0.2,0,0.4,0,0.7,0c0.4,0,0.9,0.1,1.3,0.2c0.5,0.1,0.9,0.5,0.9,1
	c0,0.4,0.1,0.9,0.1,1.3c0.1,1.2,0.1,2.3,0.2,3.5c0.1,1.9,0.2,3.8,0.4,5.7c0.1,1.3,0.2,2.6,0.2,3.9c0,0.6,0.1,1.2,0.1,1.7
	c0,0.3-0.2,0.6-0.5,0.7c-0.2,0.1-0.3,0.1-0.5,0.2c-0.3,0.1-0.6,0.1-1,0.2c-0.2,0.1-0.5,0-0.7,0.2c0.1,0.4,0.1,0.7,0.3,1.2
	C128.2,62.8,128.5,62.8,128.7,62.7z M205.9,213.2c0.2,1.1,0.3,2.2,0.2,3.3c-0.1,0.9-0.4,1.8-0.9,2.6c-0.9,1.2-2.1,2.1-3.3,3
	c-0.5,0.3-0.9,0.4-1.4-0.3c-0.1-0.1-0.1-0.1-0.2-0.2c-1.4-1.7-2.8-3.5-4.1-5.2c-0.1-0.1-0.1-0.2-0.2-0.3c-0.2-0.3-0.2-0.4,0-0.7
	c0.1-0.1,0.1-0.2,0.2-0.2c0.6-0.7,1.3-1.2,2.1-1.6c0.9-0.5,1.7-0.3,2.5,0.3c0.3,0.3,0.6,0.6,0.8,0.8c0.1,0.1,0.2,0.2,0.3,0.3
	c0.4-0.3,0.8-0.6,1.1-0.9c0-0.1,0-0.1,0-0.1c-1.5-2-3-4-4.6-6c0,0,0,0-0.1,0c0,0,0,0-0.1,0c-0.4,0.3-0.8,0.6-1.1,0.9
	c0.2,0.4,0.4,0.8,0.5,1.2c0.2,0.6,0.2,1.3-0.2,1.9c-0.3,0.5-0.7,0.8-1.2,1.2c-0.3,0.3-0.7,0.5-1,0.7c-0.2,0.1-0.3,0.2-0.5,0.3
	c-0.2,0.1-0.4,0-0.5-0.1c-0.1-0.1-0.1-0.2-0.2-0.3c-0.5-0.7-1-1.4-1.6-2.1c-0.7-1-1.5-2-2.2-3c-0.2-0.3-0.3-0.5,0-0.8
	c0.2-0.2,0.4-0.5,0.6-0.6c0.5-0.4,1.1-0.9,1.7-1.3c0.5-0.3,1-0.7,1.5-0.9c1-0.6,2.1-0.7,3.2-0.3c0.6,0.2,1.1,0.5,1.7,0.7
	c0.3,0.1,0.6,0.3,0.9,0.4c0.3-0.3,0.6-0.5,0.9-0.7c0.1-0.1,0.2-0.2,0.3-0.3c-0.1-0.1-0.2-0.3-0.3-0.4c-0.3-0.3-0.6-0.5-0.8-0.8
	c-0.7-0.9-1.5-1.8-2.2-2.6c-0.1-0.1-0.2-0.2-0.3-0.4c-0.2,0.2-0.4,0.3-0.6,0.4c-2.6,2-5.2,4-7.8,6.1c-2,1.6-4.1,3.2-6.1,4.8
	c-0.1,0.1-0.3,0.2-0.4,0.4c0.2,0.4,0.4,0.7,0.8,1c0.3-0.2,0.6-0.4,0.9-0.6c0.3-0.2,0.5-0.3,0.8-0.4c0.5-0.2,0.8-0.1,1.2,0.3
	c0.1,0.1,0.2,0.3,0.3,0.4c2,2.5,3.9,5,5.9,7.5c1.2,1.5,2.4,3,3.6,4.6c0.4,0.5,0.5,1.1,0,1.6c-0.2,0.2-0.4,0.4-0.6,0.6
	c-0.2,0.2-0.5,0.4-0.6,0.7c0.2,0.3,0.4,0.6,0.8,0.9c0.2-0.1,0.4-0.3,0.6-0.4c2.7-2,5.3-4.1,8-6.1c2-1.5,4-3.1,6-4.6
	c0.2-0.2,0.4-0.3,0.6-0.5c-0.1-0.2-0.2-0.3-0.3-0.4c-0.4-0.7-0.8-1.3-1.2-2c-0.6-1-1.1-2-1.7-3c-0.1-0.2-0.1-0.4-0.4-0.4
	c-0.4,0.3-0.7,0.6-1.1,0.9C205.8,212.6,205.9,212.9,205.9,213.2z M167.4,219c-5.1,1-10.2,2-15.3,3.1c-0.9,0.2-1.8,0.4-2.7,0.6
	c0,0,0,0-0.1,0c0,0,0,0-0.1,0.1c0.1,0.4,0.2,0.8,0.5,1.1c0.2,0,0.5-0.1,0.7-0.1c0.3,0,0.5-0.1,0.8-0.1c0.9,0,1.1,0.2,1.3,1.1
	c0.6,3.2,1.3,6.4,1.9,9.6c0.4,2,0.8,4,1.2,6c0.1,0.6,0,0.8-0.5,1.1c-0.4,0.2-0.8,0.3-1.2,0.4c-0.2,0.1-0.5,0.1-0.6,0.2
	c0,0.6,0.1,1,0.3,1.4c0.9-0.2,1.9-0.3,2.8-0.5c0.9-0.2,1.9-0.4,2.8-0.6c1-0.2,1.9-0.4,2.9-0.6c0.9-0.2,1.9-0.3,2.8-0.6
	c0.1-0.4-0.1-0.8-0.2-1.2c-0.3-0.1-0.6,0-0.9,0c-0.5,0-0.9,0.1-1.4,0.1c-0.9,0-1.1-0.1-1.3-1c-0.2-0.8-0.3-1.7-0.5-2.5
	c-0.3-1.3-0.6-2.7-0.8-4c-0.2-0.7,0.2-1.2,1-1.3c0.3,0,0.6-0.1,0.8-0.1c0.3,0,0.6-0.1,0.8-0.1c1-0.1,1.7,0.3,2.1,1.2
	c0.2,0.4,0.3,0.8,0.5,1.2c0.1,0.1,0.1,0.3,0.2,0.4c0.7-0.1,1-0.2,1.5-0.5c-0.3-1.2-0.6-2.4-0.9-3.7c-0.3-1.3-0.5-2.5-0.6-3.8
	c0,0,0,0,0-0.1c0,0,0,0-0.1,0c-0.4,0.1-0.9,0.2-1.4,0.5c0,0.4,0,0.9-0.1,1.3c-0.1,0.7-0.4,1.3-1.1,1.6c-0.3,0.1-0.6,0.2-0.8,0.3
	c-0.5,0.1-1,0.2-1.5,0.3c-0.5,0.1-0.9-0.1-1-0.7c-0.1-0.4-0.2-0.8-0.2-1.2c-0.3-1.5-0.6-3-0.9-4.5c-0.2-1-0.1-1.2,1-1.5
	c0.7-0.2,1.3-0.3,2-0.4c0.8-0.2,1.6-0.2,2.4-0.1c0.8,0,1.5,0.4,2.2,0.9c0.6,0.5,1,1.1,1.4,1.7c0.1,0.2,0.3,0.5,0.5,0.7
	c0.5,0,0.9-0.1,1.4-0.3c-0.4-1.9-0.8-3.7-1.2-5.6C167.5,219,167.4,219,167.4,219z M131.4,221.8c-3.5-0.9-6.9-1.9-10.4-2.8
	c-1.9-0.5-3.8-1-5.7-1.6c-0.2-0.1-0.4-0.2-0.7-0.1c-0.1,0.4-0.2,0.9-0.2,1.4c0.3,0.1,0.6,0.2,0.9,0.3c0.4,0.1,0.7,0.3,1.1,0.5
	c0.3,0.2,0.4,0.5,0.3,0.8c0,0.1-0.1,0.2-0.1,0.3c-1.2,4.6-2.5,9.2-3.7,13.8c-0.2,0.6-0.3,1.1-0.5,1.7c-0.1,0.5-0.4,0.7-0.9,0.7
	c-0.5,0-1-0.1-1.5-0.1c-0.2,0-0.4,0-0.6-0.1c-0.1,0.4-0.3,0.8-0.1,1.3c3.6,1,7.2,1.9,10.9,2.9c0.1,0,0.1,0,0.2,0
	c0.2-0.4,0.4-0.7,0.5-1.2c-0.2-0.1-0.4-0.2-0.7-0.2c-0.5-0.2-1-0.3-1.5-0.5c-0.8-0.3-0.9-0.6-0.7-1.4c0,0,0,0,0-0.1
	c0.6-2.3,1.3-4.5,1.9-6.8c0.1-0.5,0.4-0.6,0.8-0.6c0.7,0.1,1.5,0.3,2.1,0.7c0.7,0.4,1.2,1,1.1,1.9c0,0.5,0,1-0.1,1.5
	c0,0.1,0,0.3,0,0.4c0.5,0.2,0.9,0.4,1.4,0.5c0.1-0.2,0.1-0.4,0.2-0.6c0.1-0.4,0.1-0.8,0.3-1.2c0.5-1.7,0.9-3.4,1.4-5.1
	c0.1-0.2,0.2-0.4,0.1-0.7c-0.5-0.1-0.9-0.3-1.4-0.2c-0.2,0.4-0.4,0.8-0.5,1.2c-0.3,0.6-0.8,0.9-1.4,0.9c-0.2,0-0.4,0-0.6,0
	c-0.8,0-1.5-0.2-2.2-0.5c-0.7-0.2-0.9-0.6-0.7-1.3c0.5-1.8,1.1-3.7,1.6-5.5c0.2-0.7,0.4-0.8,1.1-0.6c1.1,0.2,2.1,0.5,3.2,0.8
	c0.3,0.1,0.6,0.2,0.8,0.3c1.1,0.5,1.8,1.3,2.1,2.5c0.1,0.5,0.2,1.1,0.3,1.6c0.1,0.3,0,0.7,0.2,1c0.7,0.2,1,0.2,1.5,0.2
	c0.3-1.8,0.8-3.5,1.5-5.4C132.3,222.1,131.9,221.9,131.4,221.8z M218,109.2c0.4,1.7,0.7,3.3,1,5c0.3,1.6,0.8,3,1.7,4.3
	c0.6,1,1.4,1.9,2.5,2.5c1,0.6,2.1,0.9,3.3,0.8c1.4-0.1,2.7-0.6,3.9-1.4c1.1-0.7,1.8-1.7,2.2-3c0.3-1,0.3-1.9,0.3-2.9
	c-0.1-1.3-0.1-2.5-0.2-3.8c0-0.4-0.1-0.9,0-1.3c0-0.7,0.1-1.4,0.5-2c0.5-1,1.3-1.6,2.5-1.6c0.7,0,1.2,0.3,1.7,0.7
	c0.8,0.7,1.5,1.6,1.8,2.6c0.6,2,0.2,3.8-1.1,5.4c-0.4,0.5-0.9,0.9-1.5,1.3c-0.1,0.1-0.3,0.2-0.4,0.3c0.3,0.5,0.4,1,0.8,1.4
	c1.9-0.7,3.6-1.6,5.5-2.2c0,0,0,0,0,0c0,0,0,0,0.1-0.1c0-0.1,0-0.1-0.1-0.2c-0.2-0.7-0.4-1.3-0.5-2c0-0.1-0.1-0.2-0.1-0.3
	c-0.4-1.5-0.8-2.9-1.4-4.3c-0.5-1.3-1.2-2.6-2.3-3.6c-1.4-1.3-3-1.8-4.8-1.6c-1,0.1-1.9,0.4-2.7,0.8c-0.8,0.4-1.4,0.9-1.9,1.6
	c-1,1.3-1.3,2.8-1.2,4.4c0,1,0.2,2,0.2,2.9c0,0.9,0.1,1.7,0,2.6c0,0.5-0.1,0.9-0.3,1.4c-0.2,0.7-0.6,1.1-1.2,1.5
	c-0.9,0.5-2.6,0.7-3.8-0.4c-0.9-0.7-1.4-1.7-1.7-2.8c-0.3-1.2-0.1-2.4,0.4-3.5c0.5-1.2,1.3-2.2,2.2-3.1c0.2-0.2,0.5-0.5,0.7-0.7
	c-0.2-0.6-0.4-1.2-0.8-1.8c-1.7,1-3.5,1.7-5.4,2.5C218,108.9,218,109.1,218,109.2z M200.9,65.2c0.7-0.5,1.4-0.9,2.2-1.1
	c1.5-0.5,2.8-0.3,4,0.7c0.1,0.1,0.2,0.2,0.3,0.3c-0.2,0.2-0.3,0.4-0.5,0.6c-2.9,3.4-5.9,6.9-8.8,10.3c-0.6,0.7-1.2,1.5-1.9,2.2
	c-0.4,0.5-0.7,0.5-1.2,0.3c-0.1-0.1-0.3-0.1-0.4-0.2c-0.4-0.3-0.8-0.7-1.2-1c-0.1-0.1-0.2-0.2-0.4-0.3c-0.2,0.2-0.3,0.3-0.5,0.5
	c-0.1,0.2-0.4,0.3-0.4,0.6c0.1,0.1,0.3,0.2,0.4,0.4c0.7,0.6,1.4,1.1,2,1.7c2.1,1.8,4.2,3.5,6.3,5.3c0.2,0.2,0.4,0.4,0.6,0.4
	c0.3-0.4,0.6-0.8,0.7-1.2c-0.2-0.1-0.4-0.3-0.5-0.4c-0.4-0.3-0.8-0.7-1.2-1.1c-0.4-0.5-0.4-0.9,0-1.4c0.1-0.2,0.3-0.4,0.5-0.6
	c1.2-1.4,2.3-2.7,3.5-4.1c2.3-2.7,4.6-5.4,6.9-8.1c0.1-0.1,0.3-0.2,0.4-0.4c0.7,0.6,1.2,1.2,1.4,2.1c0.2,0.8,0.1,1.6-0.1,2.4
	c-0.2,0.7-0.5,1.5-0.8,2.2c-0.1,0.2-0.2,0.4-0.3,0.7c0.3,0.2,0.6,0.3,0.8,0.4c0.3,0.1,0.6,0.4,0.9,0.3c1.1-1.8,2.2-3.5,3.7-5.2
	c-0.9-0.8-1.9-1.6-2.8-2.4c-0.9-0.8-1.9-1.6-2.8-2.3c-0.9-0.8-1.8-1.5-2.7-2.3c-0.9-0.8-1.9-1.6-2.8-2.3c-0.9-0.8-1.8-1.6-2.8-2.3
	c-0.5,0.6-0.9,1.1-1.4,1.6c-0.5,0.5-1,1-1.5,1.5c-0.5,0.5-1,0.9-1.6,1.4c0.3,0.5,0.6,1,1,1.5C200.4,65.6,200.7,65.4,200.9,65.2z
	 M74.9,179.8c-0.4-2.4-1.2-4.6-2.3-6.7c-0.8-1.7-2-3.3-3.6-4.4c-1.9-1.4-4-2-6.4-1.9c-1.6,0-3.1,0.4-4.6,1c-1.8,0.7-3.4,1.8-4.7,3.2
	c-1.5,1.7-2.3,3.8-2.3,6.1c0,1.8,0.5,3.6,1.3,5.2c0.8,1.6,1.9,2.9,3.2,4.1c0.7,0.7,1.4,1.3,2.2,1.8c0.3,0.2,0.5,0.3,0.9,0.4
	c0.4-0.4,0.7-0.8,1-1.2c-0.2-0.3-0.5-0.5-0.7-0.7c-0.6-0.5-1.2-1-1.8-1.6c-1.2-1.1-2-2.4-2.5-4c-0.2-0.7-0.3-1.4-0.3-2.1
	c0.1-1.2,0.5-2.2,1.2-3.1c0.6-0.8,1.3-1.4,2.2-2c1.5-1,3.1-1.7,4.9-2.2c1.5-0.4,3-0.6,4.6-0.3c1.1,0.2,2,0.5,2.9,1.1
	c1.5,1.1,2.2,2.6,2,4.5c-0.1,1.4-0.8,2.5-1.7,3.4c-0.5,0.5-1,0.9-1.5,1.3c-0.1,0.1-0.2,0.2-0.3,0.3c0.3,0.6,0.5,1.1,0.8,1.6
	c1.9-0.8,3.7-1.6,5.6-2.4C75.2,180.9,75,180.3,74.9,179.8z M237.4,144.5c-0.8-1.4-1.9-2.3-3.5-2.4c-1.6-0.2-3,0.3-4,1.7
	c-1.2,1.6-1.1,3.8,0.1,5.4c0.5,0.7,1.2,1.1,2,1.4c2.9,1,5.9-1.3,5.8-4.3C237.8,145.6,237.7,145,237.4,144.5z M53.9,147.5
	c2.4-0.8,3.8-3.5,2.2-6c-1.7-2.7-5.6-2.6-7.2,0.1c-0.7,1.2-0.8,3.3,0.4,4.6c0.9,1,1.9,1.4,3.2,1.4C53,147.7,53.4,147.7,53.9,147.5z
	 M226.7,93c0.1,0,0.2-0.1,0.3-0.1c1.3-0.5,2.4-1.4,3.1-2.6c0.3-0.5,0.5-1.1,0.4-1.7c-0.1-0.8-0.5-1.5-1.2-2.1
	c-0.9-0.7-2.1-0.5-2.8-0.2c-0.1,0.1-0.2,0.2-0.3,0.3c-0.8,0.8-0.9,1.8-0.6,2.8c0.1,0.3,0.2,0.5,0.3,0.8c0.2,0.4,0.1,0.7-0.2,0.9
	c-0.4,0.3-0.9,0.5-1.4,0.3c-0.5-0.1-1-0.3-1.5-0.6c-0.3-0.2-0.6-0.5-1-0.7c-0.2-0.1-0.4-0.2-0.6-0.2c-0.3,0-0.5,0.2-0.6,0.5
	c-0.1,0.2,0,0.5,0.1,0.6c0.1,0.1,0.1,0.2,0.2,0.3c1.2,1.1,2.5,1.8,4.2,1.8C225.8,93.2,226.3,93.1,226.7,93z"/>
<g>
	<path class="st1" d="M151.5,163.3C151.4,163.3,151.4,163.3,151.5,163.3c-0.5,0.9-1.3,1.2-2.1,1.3c-0.9,0.1-1.9,0.1-2.8,0.2
		c-0.5,0-1-0.1-1.4-0.4c-0.2-0.1-0.3-0.3-0.5-0.5c-0.1-0.1-0.2-0.2-0.3-0.4c-0.2,0.1-0.3,0.2-0.5,0.3c-0.5,0.4-1,0.7-1.5,1
		c-0.6,0.3-1.3,0.4-2,0.4c-0.9-0.1-1.7-0.1-2.6-0.4c-0.5-0.1-0.9-0.3-1.3-0.6c-0.7-0.5-1.1-1.1-1.1-2c0-0.6,0-1.3,0-1.9
		c0-1.2,0.6-2.2,1.6-2.8c0.5-0.3,1-0.6,1.4-0.9c0.5-0.3,1-0.7,1.5-1.1c0.5-0.3,0.6-0.8,0.6-1.4c0-1.5,0-3.1-0.1-4.6
		c0-0.3-0.1-0.6-0.2-1c0-0.2-0.2-0.4-0.4-0.4c-0.3-0.1-0.7-0.1-1-0.2c-0.2,0-0.5,0-0.7,0.1c-0.7,0.4-1.5,0.4-2.2,0.3
		c-0.2,0-0.4-0.1-0.5-0.2c-0.8-0.4-0.8-1.3-0.6-1.9c0.1-0.2,0.3-0.4,0.6-0.5c0.6-0.2,1.2-0.3,1.7,0.1c0.5,0.4,1,0.5,1.6,0.4
		c0.2,0,0.3,0,0.5,0c0.3,0,0.4-0.2,0.3-0.4c-0.1-0.3-0.3-0.5-0.5-0.7c-0.5-0.3-1-0.5-1.5-0.5c-0.8-0.1-1.5-0.3-2.2-0.7
		c-1.1-0.5-2.1-1.2-2.9-2c-0.3-0.4-0.6-0.8-0.8-1.2c-1.6-3.4-3.2-6.8-4.7-10.1c-0.4-0.8-0.2-0.7-1.2-0.9c-1.1-0.2-2.3-0.4-3.4-0.6
		c-1.3-0.2-2.5-0.4-3.8-0.6c-0.5-0.1-0.9-0.3-1.4-0.4c-0.2-0.1-0.5-0.1-0.7-0.2c-0.7-0.2-1.5-0.2-2.2,0.1c-0.5,0.2-0.9,0.3-1.4,0.3
		c-0.2,0-0.5,0.1-0.7,0.1c-0.2,0-0.3,0-0.5,0c-0.2,0-0.3-0.1-0.3-0.3c-0.1-0.4,0-0.8,0.4-1.1c0.2-0.2,0.5-0.3,0.8-0.4
		c0.7-0.3,1.4-0.4,2.2-0.5c1.2-0.1,2.3-0.1,3.5-0.2c0.7,0,1.3,0,2-0.3c0.2-0.1,0.5-0.1,0.8-0.1c1.1-0.1,2.3-0.1,3.4-0.2
		c0.2,0,0.3-0.1,0.5-0.1c0-0.1,0-0.3,0-0.4c-0.1-0.5-0.2-1-0.3-1.4c-0.2-0.8-0.5-1.5-0.9-2.2c-0.6-1.1-1.3-2.2-2-3.3
		c-0.1-0.2-0.3-0.4-0.5-0.7c-0.4-0.5-0.8-0.9-1.2-1.4c-0.1-0.1-0.2-0.3-0.2-0.4c0.6-0.6,1.1-0.7,1.8-0.4c1.6,0.9,3,2.1,4.3,3.4
		c0.8,0.8,1.3,1.7,1.9,2.7c0.4,0.6,0.7,1.3,1.1,1.9c0.1,0.2,0.2,0.3,0.3,0.5c0.2,0.2,0.4,0.3,0.6,0.2c0.5-0.2,1.1-0.5,1.6-0.7
		c0.9-0.4,1.9-0.8,2.9-1c0.7-0.1,1.4-0.2,2.1-0.1c1.9,0.3,3.8,0.8,5.6,1.7c0.5,0.2,1,0.5,1.4,0.9c0.2,0.2,0.3,0.4,0.2,0.7
		c-0.4,1.4-1.2,2.5-2.5,3.2c-1.1,0.6-2.2,1-3.4,1.2c-0.7,0.1-1.4,0.4-2.1,0.6c-0.5,0.2-0.7,0.5-0.7,1c0,0.6,0.2,1.1,0.6,1.5
		c1.2,1.3,2.2,2.7,3.2,4.1c0.6,0.8,1.3,1.6,2,2.4c0.5,0.5,0.8,1.1,0.8,1.9c0,0.5,0.1,1.1,0.3,1.5c0.2,0.1,0.3,0,0.5-0.1
		c0.2-0.2,0.3-0.5,0.3-0.8c0-0.5,0-0.9-0.1-1.4c-0.1-1.2-0.1-2.4,0-3.6c0.1-0.8,0.1-1.6,0.2-2.4c0.1-0.9,0.3-1.8,0.5-2.7
		c0.3-1.1,0.6-2.3,1-3.4c0.2-0.8,0.4-1.6,0.5-2.5c0-0.6-0.1-1.1-0.6-1.6c-0.6-0.6-1.1-1.2-1.6-1.8c-0.4-0.4-0.6-0.8-0.6-1.4
		c0-0.1-0.1-0.3-0.1-0.5c-0.2,0.1-0.4,0.3-0.6,0.4c-0.5,0.3-1,0.3-1.5,0c-0.5-0.3-1-0.4-1.5-0.4c-0.4,0-0.7-0.2-0.9-0.4
		c-0.3-0.3-0.6-0.6-0.8-0.8c-0.4-0.4-0.8-0.7-1.3-1c-0.3-0.1-0.5-0.3-0.8-0.3c-0.3,0-0.6-0.2-0.6-0.6c-0.2-1.1-0.8-1.9-1.3-2.8
		c-0.2-0.3-0.4-0.5-0.6-0.8c-0.2-0.3-0.3-0.6-0.4-0.9c-0.1-0.4-0.3-0.7-0.7-1c-0.2-0.2-0.5-0.3-0.7-0.5c-0.5-0.5-0.5-1,0-1.5
		c0.5-0.5,1.1-0.7,1.8-0.7c0.9-0.1,1.7,0.3,2.5,0.7c0.6,0.3,1.2,0.6,1.7,0.9c1.1,0.5,2,1.2,2.8,2.1c0.4,0.5,0.7,1,1,1.6
		c0.4,0.8,0.8,1.6,1.2,2.4c0.1,0.3,0.2,0.5,0.3,0.8c0.1,0.2,0.1,0.5,0.3,0.7c0.2,0,0.4-0.2,0.6-0.3c0.4-0.3,0.8-0.6,1.4-0.6
		c0.2,0,0.3-0.1,0.4-0.3c0.1-0.2,0.1-0.3,0.2-0.5c0.1-0.4,0.4-0.6,0.7-0.8c0.3-0.1,0.6-0.3,0.9-0.4c0.6-0.3,1.3-0.4,2-0.3
		c0.2,0,0.3,0,0.5,0c0.3,0,0.5-0.1,0.6-0.4c0.1-0.2,0.2-0.3,0.2-0.5c0.3-1.4,0.8-2.8,1.2-4.1c0.2-0.8,0.3-1.7,0.5-2.6
		c-0.2-0.1-0.4-0.2-0.5-0.3c-0.3-0.2-0.6-0.5-0.7-0.8c0-0.1,0-0.1-0.1-0.2c-0.3-0.8-0.2-1.4,0.3-2.1c0.5-0.6,0.8-0.7,0.2-1.7
		c-0.3-0.5-0.3-1.2-0.3-1.8c0-0.3,0-0.5,0.1-0.8c0-0.2,0-0.4-0.2-0.5c-0.1-0.1-0.3-0.3-0.4-0.4c-0.2-0.2-0.5-0.4-0.9-0.4
		c-0.2,0-0.4,0-0.6,0c-0.5,0-0.9,0.1-1.3,0.3c-0.5,0.2-0.9,0.4-1.4,0.6c-0.4,0.2-0.9,0.3-1.2,0.7c-0.2,0.1-0.4,0.2-0.6,0.2
		c-0.5,0-0.9,0-1.4,0c-0.1,0-0.2,0-0.3-0.1c-0.1,0-0.2-0.2-0.1-0.3c0.1-0.2,0.1-0.3,0.3-0.5c0.4-0.5,0.9-0.8,1.4-1.2
		c0.4-0.2,0.7-0.5,1.1-0.7c0.1-0.1,0.2-0.2,0.4-0.2c0.7-0.1,1.3-0.5,2-0.8c0.3-0.1,0.6-0.2,0.8-0.3c0.6-0.2,1.1-0.4,1.6-0.8
		c0.2-0.2,0.5-0.4,0.7-0.5c0.2-0.1,0.5-0.1,0.7,0.1c0.7,0.6,1.4,1.2,1.8,2c0.2,0.3,0.3,0.7,0.5,1c0.2,0.3,0.4,0.4,0.8,0.2
		c0.2-0.1,0.4-0.3,0.5-0.5c0.2-0.3,0.3-0.7,0.4-1c0.1-0.5,0.5-0.8,0.9-1.1c0.3-0.1,0.6-0.3,0.9-0.4c0.6-0.2,1-0.6,1.2-1.2
		c0.2-0.4,0.5-0.9,0.7-1.3c0.1-0.2,0.2-0.3,0.3-0.5c0.2-0.4,0.6-0.5,0.9-0.6c0.2-0.1,0.4,0.1,0.5,0.3c0.1,0.3,0.2,0.5,0.3,0.8
		c0.1,1.1,0,2.2-0.6,3.2c-0.8,1.3-1.6,2.7-2.4,4c-0.3,0.4-0.5,0.9-0.7,1.3c-0.1,0.2-0.1,0.4-0.2,0.6c0,0.1,0.1,0.3,0.3,0.3
		c0.2,0,0.4-0.1,0.5-0.2c0.7-0.5,1.6-0.6,2.4-0.6c0.6,0,1.2,0,1.8-0.1c0.9-0.1,1.7,0,2.5,0.4c0.9,0.4,1.8,0.8,2.7,1.2
		c0.7,0.3,1.3,0.7,2,1.1c0.7,0.4,1.1,1,1.5,1.6c-0.2,0.4-0.5,0.6-1,0.7c-0.5,0.1-1,0-1.5-0.2c-1.2-0.5-2.4-0.9-3.7-1.2
		c-0.3-0.1-0.6-0.1-0.9-0.1c-0.3,0-0.4,0.2-0.2,0.5c0.1,0.1,0.2,0.2,0.3,0.3c0.7,0.4,1.3,0.9,1.9,1.5c0.6,0.6,1.1,1.2,1.4,2
		c0.2,0.4,0.3,0.9,0.2,1.4c-0.1,0.3-0.1,0.6-0.2,1c-0.1,0.4-0.3,0.5-0.7,0.4c-0.3,0-0.6-0.2-0.8-0.4c-0.4-0.3-0.6-0.7-0.8-1.1
		c-0.3-0.9-0.9-1.7-1.6-2.4c-0.5-0.5-1.1-1.1-1.6-1.6c-0.2-0.2-0.5-0.4-0.8-0.4c-1-0.3-1.9-0.5-2.9-0.7c-0.7-0.1-1.4,0.2-1.9,0.5
		c-0.5,0.3-0.6,0.9-0.6,1.4c0,0.2,0.1,0.3,0.3,0.2c0.4,0,0.7,0,1.1-0.2c0.2-0.2,0.4,0,0.5,0.3c0.1,0.3,0,0.6-0.1,0.9
		c-0.1,0.2-0.3,0.4-0.6,0.4c-0.3,0-0.6,0-0.9,0c-0.4,0-0.7,0.1-1,0.3c-0.5,0.4-0.8,0.9-1.1,1.4c-0.6,1.5-1.2,3-1.5,4.7
		c-0.1,0.3-0.2,0.5-0.4,0.7c-0.1,0.2-0.2,0.5-0.2,0.7c0,0.1,0.1,0.2,0.2,0.2c0.2,0,0.4,0.1,0.6,0c0.5-0.1,0.8,0.2,1.1,0.6
		c0.2,0.3,0.2,0.7,0.2,1.1c0,0.1-0.1,0.3-0.2,0.4c-0.4,0.4-0.6,0.9-0.8,1.4c-0.1,0.5-0.4,0.9-0.6,1.4c-0.1,0.2-0.2,0.3-0.4,0.3
		c-0.4,0.1-0.5,0.2-0.5,0.6c0,0.3,0,0.4,0.3,0.8c0.6-0.1,1.3-0.5,1.7-0.9c0.2-0.2,0.2-0.4,0.2-0.6c0-0.2,0-0.5-0.1-0.7
		c-0.1-0.7,0.2-1.3,0.6-1.9c0.4-0.5,0.9-0.7,1.5-0.4c0.1,0.1,0.3,0.1,0.4,0.2c0.2,0.2,0.4,0.4,0.4,0.6c0,0.7-0.1,1.4-0.5,2.1
		c-0.1,0.2-0.3,0.5-0.5,0.6c-0.6,0.5-1.2,1-1.9,1.4c-0.8,0.5-1.5,1.2-2.2,1.8c-0.6,0.6-1.1,1.3-1.5,2.1c-0.2,0.4-0.4,0.7-0.6,1
		c-0.3,0.5-0.6,0.9-0.9,1.4c-0.2,0.3-0.2,0.5-0.4,0.8c-0.1,0.1-0.1,0.3-0.2,0.5c-0.4,0.7-0.6,1.4-0.8,2.2c-0.3,1.3-0.7,2.5-1,3.8
		c-0.1,0.3-0.1,0.5-0.2,0.8s-0.1,0.6-0.1,0.8c0,0.4,0.1,0.8,0.1,1.3c0.1-0.1,0.1-0.1,0.2-0.1c0.2-0.4,0.5-0.7,0.6-1.1
		c0.3-0.6,0.7-1.2,1.1-1.7c0.2-0.3,0.6-0.5,1-0.5c0.5,0,0.8,0.3,0.8,0.8c0,0.4,0,0.7-0.1,1c-0.2,0.6-0.5,1.2-0.7,1.8
		c-0.2,0.5-0.4,1-0.6,1.5c-0.1,0.3-0.3,0.6-0.4,0.8c-0.4,0.5-0.9,1-1.4,1.4c-0.1,0.1-0.2,0.2-0.3,0.3c0.2,0.4,0.6,0.5,1,0.5
		c0.5,0,0.9-0.2,1.3-0.4c0.9-0.5,1.9-0.9,3-1.2c0.7-0.2,1.3-0.2,2-0.2c0.4,0,0.7,0.2,0.9,0.5c0.3,0.3,0.3,0.7-0.1,1
		c-0.7,0.5-1.3,0.9-2,1.4c-0.5,0.3-1.1,0.5-1.7,0.6c-0.6,0.1-1.2,0.2-1.8,0.4c-0.4,0.1-0.8,0.3-1.2,0.4c-0.3,0.1-0.4,0.3-0.4,0.6
		c0,0.1,0,0.1,0,0.2c0,0.2-0.1,0.3-0.3,0.4c-0.2,0.1-0.4,0.1-0.7,0.2c-0.3,0.1-0.5,0.3-0.8,0.4c-0.1,0.5-0.2,0.9-0.2,1.4
		c0,0.2,0,0.2,0.1,0.6c0.1,0,0.1,0,0.2,0c0.5-0.3,1-0.6,1.5-0.8c0.4-0.2,0.8-0.3,1.3-0.3c0.4,0.1,0.8,0.1,1.2,0.2
		c0.5,0.1,0.9,0.3,1.3,0.6c0.1,0.1,0.3,0.2,0.3,0.3c0.6,0.9,1.1,1.7,1.3,2.8c0.1,0.4,0.1,0.8-0.2,1.1c-0.1,0.1-0.2,0.2-0.3,0.3
		c-0.2,0.3-0.2,0.5,0,0.8c0.1,0.1,0.2,0.2,0.4,0.3c0.1,0.1,0.2,0.2,0.4,0.3c0.6,0.4,0.9,1.1,0.9,1.8c0,0.4-0.1,0.9-0.1,1.3
		c0,0.3,0,0.6,0,0.9c0.2,0.1,0.4,0.1,0.6,0c1-0.3,2.1-0.6,3.1-1.1c0.3-0.2,0.6-0.3,0.9-0.6c0.7-0.5,1.4-1.1,2-1.6
		c0.2-0.2,0.5-0.3,0.8-0.4c0.1,0,0.2,0,0.3,0c0.1,0,0.3,0.2,0.2,0.3c-0.1,0.2-0.2,0.5-0.4,0.7c-0.1,0.2-0.4,0.4-0.3,0.7
		c0.3,0.2,0.6,0.5,0.9,0.7c0.3,0.2,0.5,0.2,0.8-0.1c0.3-0.3,0.5-0.5,0.8-0.8c0.4-0.4,0.9-0.6,1.5-0.6c0.7,0,1.4,0,2.2,0
		c0.7,0,0.8-0.2,0.9-0.9c-0.1-0.1-0.1-0.1-0.2-0.2c-1.2-0.8-2.4-1.6-3.6-2.4c-0.4-0.2-0.7-0.4-1.2-0.4c-0.8-0.1-1.5-0.4-2.2-0.7
		c-0.1,0-0.3-0.1-0.4-0.2c-1.1-0.9-2.4-1.7-3.6-2.5c-0.8-0.5-1.6-1-2.4-1.6c-0.5-0.4-1-0.8-1.5-1.3c-0.1-0.1-0.2-0.3-0.3-0.4
		c0.1-0.1,0.1-0.3,0.2-0.3c0.2-0.2,0.4-0.5,0.6-0.7c1.3-1.1,2.6-2,4.3-2.5c0.8-0.2,1.5-0.4,2.3-0.4c1.2-0.1,2.4,0.2,3.4,0.7
		c1,0.5,1.9,1.2,2.8,2c1,0.9,1.8,1.9,2.5,2.9c0.9,1.2,1.8,2.4,2.7,3.7c0.1,0.2,0.2,0.4,0.3,0.5c0.3,0.6,0.5,1.2,0.7,1.8
		c0.1,0.2,0.2,0.4,0.4,0.5c0.2,0.1,0.4,0.1,0.5-0.1c0.1-0.1,0.2-0.3,0.3-0.4c0.1-0.2,0.2-0.3,0.2-0.5c0.4-1.3,1.2-2.3,2-3.3
		c0.4-0.5,0.8-0.8,1.4-1.1c2.4-1.3,4.8-2.4,7.4-3.3c0.6-0.2,1.2-0.4,1.9-0.6c0.8-0.2,1.6-0.2,2.4,0c0.1,0,0.1,0,0.2,0
		c0.6,0.2,0.7,0.5,0.4,1c-0.3,0.4-0.7,0.9-1.1,1.3c-1.1,1.3-2.2,2.6-3.3,3.9c-0.3,0.4-0.6,0.7-0.8,1.2c-0.4,0.7-0.9,1.3-1.5,1.9
		c-0.3,0.3-0.6,0.6-1,0.9c-0.2,0.2-0.5,0.5-0.7,0.7c-0.3,0.3-0.4,0.6-0.2,1c0.1,0.3,0.3,0.7,0.5,1c0.1,0.1,0.2,0.3,0.2,0.4
		c0.1,0.2-0.1,0.5-0.3,0.5c-0.1,0-0.2,0-0.3,0c-1.6-0.3-3.3-0.6-4.9-0.9c-0.8-0.1-1.5-0.4-2.2-0.7c-0.3-0.1-0.6-0.2-0.9-0.3
		c-0.1,0-0.3-0.1-0.5,0.1c0,0.1,0,0.2,0.1,0.2c0.6,0.9,1.4,1.5,2.5,1.4c0.3,0,0.6-0.1,1-0.1c0.4,0,0.7,0,1,0.1
		c0.3,0.1,0.4,0.3,0.3,0.6c-0.1,0.3-0.3,0.5-0.4,0.8c-0.2,0.4-0.5,0.8-0.8,1.2c-0.3,0.4-0.6,0.9-0.8,1.4c-0.2,0.4-0.4,0.7-0.7,1.1
		c-0.7,0.8-1.5,1.4-2.4,1.8c-2.3,0.9-4.7,1.6-7.2,2.1c-0.5,0.1-1,0.1-1.5,0.1c-1.7,0-3.4-0.3-5.1-0.6c-0.7-0.2-1.4-0.4-2.1-0.7
		c-0.4-0.2-0.8-0.4-1.2-0.6c-0.3-0.1-0.6-0.3-0.9-0.5c-0.3-0.2-0.5-0.5-0.5-0.8c-0.1-0.6-0.2-1.1-0.3-1.7
		C151.6,163.5,151.5,163.4,151.5,163.3z M143.7,159.9c0-0.5-0.3-1.2-0.9-1.7c-0.4-0.4-1-0.7-1.5-0.8c-0.6-0.1-1.2-0.1-1.7,0.3
		c-0.6,0.4-1.2,0.8-1.8,1.2c-0.4,0.3-0.7,0.7-0.8,1.2c-0.3,0.9-0.1,1.8,0.2,2.6c0.1,0.3,0.4,0.6,0.7,0.8c0.4,0.2,0.8,0,0.8-0.4
		c0-0.3-0.1-0.6-0.1-1c-0.1-0.4-0.2-0.7-0.2-1.1c0-0.1,0-0.3,0-0.4c0-0.1,0.1-0.3,0.2-0.3c0.1,0,0.2,0,0.3,0.1
		c0.1,0.1,0.2,0.3,0.3,0.5c0.2,0.3,0.3,0.7,0.4,1c0.1,0.4,0.4,0.6,0.7,0.8c0.3,0.1,0.6,0.3,0.9,0.4c0.4,0.2,0.7,0.1,1-0.2
		C143.1,162.3,143.7,161.4,143.7,159.9z M148.4,155.3c0.3-0.7,0.3-1.4,0-2.2c-0.2-0.6-0.4-1.1-0.9-1.5c-0.4-0.4-0.9-0.5-1.5-0.4
		c-0.9,0.2-1.6,0.8-2.2,1.4c-0.3,0.4-0.4,0.8-0.3,1.3c0.1,0.3,0.2,0.5,0.3,0.8c0.1,0.1,0.2,0.2,0.3,0.3c0.3,0.2,0.7,0.5,1,0.7
		c0.3-0.1,0.6-0.2,0.8-0.4c0.6-0.3,1.2-0.4,1.8-0.2C147.9,155.3,148.1,155.4,148.4,155.3z M147.2,161.1c1.1,0,2.1-0.6,2.8-1.7
		c0.1-0.2,0.2-0.4,0-0.7c-0.3-0.5-0.5-1-0.8-1.5c-0.2-0.3-0.4-0.5-0.7-0.6c-1-0.3-2.5-0.1-3,1.1c-0.1,0.1-0.1,0.2-0.2,0.4
		c-0.2,0.2-0.2,0.5-0.2,0.8c0,0.4,0.1,0.7,0.2,1.1C145.6,161,145.9,161.1,147.2,161.1z M147.7,117.2c0-0.3,0-0.4-0.2-0.6
		c-0.3-0.3-0.8-0.5-1.2-0.6c-0.2-0.1-0.4,0-0.5,0.1c-0.5,0.4-0.6,1-0.8,1.6c0,0,0,0.1,0,0.1c0.1,0.6,1.1,1.2,1.6,1
		c0,0,0.1,0,0.1-0.1C147.3,118.4,147.6,117.8,147.7,117.2z M145,123c-0.1-0.3-0.2-0.5-0.3-0.7c-0.1-0.1-0.2-0.3-0.3-0.4
		c-0.5-0.6-0.9-1.3-1.1-2.1c-0.1-0.3-0.2-0.6-0.4-0.9c-0.1-0.2-0.3-0.3-0.4-0.4c-0.1-0.1-0.3-0.1-0.4,0c-0.1,0.1-0.1,0.2-0.1,0.4
		c0.1,0.4,0.2,0.8,0.3,1.1c0.1,0.7,0.4,1.3,0.7,2C143.4,122.8,144.1,123.1,145,123z M150.9,118.4c-0.1-0.2-0.1-0.3-0.2-0.4
		c-0.2-0.3-0.5-0.5-0.8-0.7c-0.3-0.2-0.5-0.1-0.7,0.1c-0.2,0.3-0.4,0.6-0.5,1c0,0.1,0,0.2,0,0.3c0.1,0.5,0.7,0.8,1.2,0.6
		c0.3-0.2,0.6-0.4,0.9-0.6C150.8,118.7,150.9,118.5,150.9,118.4z M148.2,163.1C148.2,163.1,148.2,163.1,148.2,163.1
		c0.1,0,0.3,0,0.4-0.1c0.3-0.1,0.7-0.2,1-0.3c0.3-0.1,0.3-0.4,0.2-0.6c-0.1-0.4-0.3-0.5-0.6-0.4c-0.6,0.2-1.3,0.2-1.9,0.2
		c-0.3,0-0.5,0.2-0.3,0.5c0.1,0.3,0.3,0.5,0.5,0.6C147.7,163,147.9,163,148.2,163.1z M146.2,124c-0.1,0.2-0.2,0.4-0.2,0.6
		c-0.1,0.4,0.1,0.6,0.4,0.7c0.1,0,0.3,0.1,0.4,0.1c0.5,0.1,0.7-0.1,0.8-0.5c0-0.2,0-0.3,0-0.5c0-0.4-0.2-0.6-0.6-0.5
		C146.8,123.8,146.5,123.9,146.2,124z M152.6,104.8c-0.5,0.2-0.7,0.5-0.7,1c0,0.4,0.3,0.7,0.7,0.9c0.2,0.1,0.4,0,0.5-0.2
		c0.2-0.4,0.2-0.7,0.3-1.2C153.1,105.1,152.9,104.9,152.6,104.8z M146.7,120.3c0,0.3,0,0.6,0,0.8c0,0.2,0.2,0.3,0.3,0.4
		c0.2,0.1,0.4,0,0.5-0.1c0.3-0.2,0.3-0.5,0.3-0.8c0-0.3-0.2-0.4-0.4-0.5C147.2,120.1,147,120.1,146.7,120.3z M150.4,106
		c0.4,0,0.6-0.2,0.7-0.5c0.1-0.3-0.3-0.9-0.7-0.9c-0.1,0-0.2,0.1-0.3,0.2c-0.1,0.3-0.1,0.6-0.2,0.9c0,0.2,0.1,0.3,0.3,0.4
		C150.3,106,150.4,106,150.4,106z M153.9,195.4c-0.1,0-0.2,0-0.3,0.1c-1.3,0.1-2.5,0.1-3.8,0c-0.1,0-0.2,0-0.3,0
		c-0.2-0.1-0.4-0.2-0.5-0.4c-0.3-0.7-0.5-1.4-0.8-2.1c-0.7-1.9-1.4-3.8-2.2-5.6c-0.5-1.1-1-2.1-1.5-3.2c-0.1-0.2-0.3-0.3-0.5-0.3
		c-0.2,0-0.5,0-0.7,0c-0.4,0-0.8-0.1-1.2-0.2c-0.5-0.1-0.9-0.5-1.1-1c-0.2-0.5-0.4-1-0.5-1.5c-0.3-0.9-0.6-1.8-1-2.6
		c-0.1-0.2-0.2-0.4-0.4-0.5c-0.3,0.1-0.5,0.3-0.7,0.6c-0.8,1-1.6,2-2.4,2.9c-0.7,0.9-1.4,1.7-2.2,2.5c-0.6,0.5-1.2,1-1.9,1.4
		c-0.6,0.3-1.3,0.5-2,0.5c-1.3,0.1-2.6,0.1-3.9,0c-1.8-0.1-3.6-0.3-5.3-0.6c-1.6-0.3-3.3-0.5-4.9-1c-0.9-0.3-1.7-0.7-2.4-1.4
		c-0.5-0.4-0.6-0.7-0.6-1.3c0.2,0,0.3,0,0.5,0c1.3,0.2,2.6,0.4,3.9,0.6c1.1,0.1,2.1,0.2,3.2,0.3c0.5,0.1,1.1,0,1.6-0.1
		c0.2-0.1,0.5-0.1,0.6-0.4c0-0.2-0.1-0.2-0.2-0.2c-0.2,0-0.5,0-0.7-0.1c-1.8-0.1-3.5-0.2-5.3-0.3c-0.6,0-1.2-0.2-1.7-0.2
		c-0.2,0-0.4-0.1-0.5-0.2c-0.3-0.1-0.5-0.3-0.5-0.7c0-0.5-0.2-0.8-0.6-0.9c-0.6-0.2-1.3-0.3-2-0.5c-0.6-0.1-1.1-0.1-1.7-0.1
		c-0.5,0.1-0.9,0-1.4,0c-0.6,0-1.2-0.2-1.8-0.5c-0.2-0.1-0.3-0.2-0.5-0.4c-0.5-0.3-1.1-0.5-1.7-0.6c-0.8-0.1-1.6-0.2-2.4-0.3
		c-0.4-0.1-0.7-0.1-1.1-0.3c0.1-0.1,0.1-0.3,0.2-0.4c0.3-0.4,0.7-0.7,1-1c1.4-1.1,2.9-1.9,4.5-2.5c0.8-0.3,1.6-0.4,2.5-0.4
		c2.7,0.1,5.4,0.2,8.1,0.2c0.8,0,1.6,0,2.4,0c1.1,0,2.2-0.2,3.3-0.4c1.5-0.2,2.9-0.5,4.4-0.4c0.6,0,1.2,0,1.8-0.2
		c0.8-0.3,1.6-0.2,2.4,0.1c1.4,0.6,2.8,1.3,4.1,2.1c1.3,0.9,2.7,1.8,4,2.7c0.3,0.2,0.5,0.4,0.8,0.5c0.2,0.1,0.3,0,0.4-0.2
		c0-0.2,0.1-0.4,0-0.6c0-1-0.1-2-0.1-3.1c-0.2-0.1-0.4-0.2-0.6-0.3c-0.2-0.1-0.5-0.3-0.7-0.5c-0.4-0.4-0.5-0.8-0.3-1.3
		c0.1-0.2,0.2-0.4,0.4-0.6c0.3-0.3,0.5-0.7,0.8-1c0.3-0.3,0.3-0.5,0-0.8c-0.1-0.1-0.2-0.2-0.3-0.3c-0.1-0.2-0.3-0.2-0.5-0.2
		c-0.9,0-1.6,0.4-2.1,1.1c-0.3,0.5-0.5,0.9-0.4,1.5c0.1,0.3,0,0.6,0.1,1c0.1,0.5,0.2,1,0.6,1.4c0.1,0.1,0.1,0.2,0.2,0.3
		c-0.2,0-0.3,0-0.4,0c-0.5-0.2-1-0.4-1.5-0.6c-0.3-0.1-0.5-0.3-0.6-0.5c-0.3-0.5-0.6-1.1-0.7-1.8c0-0.2,0-0.4,0.1-0.6
		c0.3-1,0.8-1.9,1.5-2.7c0.4-0.4,0.9-0.7,1.5-0.7c0.7-0.1,1.4,0,2.1,0.1c0.3,0,0.7,0.1,1,0.1c0.3,0,0.5-0.1,0.4-0.5
		c0-0.2-0.1-0.4,0-0.6c0.2-0.1,0.4,0.1,0.6,0.2c0.5,0.4,1,0.8,1.4,1.3c0.2,0.2,0.4,0.3,0.6,0.3c0.6,0,1.1,0.3,1.5,0.7
		c0.3,0.3,0.5,0.4,0.9,0.1c0.3-0.2,0.6-0.4,0.8-0.6c0.5-0.4,1-0.7,1.7-0.7c0.4,0,0.8,0,1.3,0.1c0.4,0,0.9,0.1,1.3,0.2
		c1,0.2,1.6,0.8,1.9,1.9c0.1,0.5,0.2,1,0.3,1.4c0.1,0.4,0.2,0.8,0.6,1c0.2,0.1,0.3,0.3,0.3,0.5c0.1,0.3,0.1,0.7,0.2,1
		c0,0.2,0.1,0.5,0.1,0.7c0.1,0.2,0.3,0.3,0.5,0.2c0.2-0.1,0.4-0.2,0.6-0.4c0.4-0.3,0.7-0.7,1.1-1c0.3-0.3,0.5-0.4,0.9-0.5
		c1-0.4,2.1-0.6,3.1-0.8c0.5-0.1,1.1-0.2,1.6-0.3c0.5-0.1,1-0.2,1.5-0.5c0.4-0.2,0.9-0.2,1.4-0.1c1.7,0.5,3.4,0.6,5.2,0.7
		c0.6,0,1.2,0,1.8,0.1c0.9,0.1,1.8,0.1,2.7,0.4c0.4,0.1,0.9,0.3,1.3,0.5c1.1,0.5,2.3,0.9,3.5,1.3c0.7,0.2,1.3,0.3,2,0.3
		c0.3,0,0.7,0,1,0c0.2,0,0.3,0,0.5,0.1c0.4,0.1,0.6,0.3,0.7,0.7c0,0.2,0.1,0.3,0.1,0.5c-0.5,0.1-1,0.3-1.5,0.3
		c-0.7,0.1-1.4,0.4-2.1,0.8c-1.1,0.6-2.1,1.2-3.2,1.8c-0.6,0.4-1.2,0.7-1.9,0.9c-0.8,0.3-1.6,0.6-2.4,0.9c-0.7,0.3-1.4,0.6-2,1.1
		c-0.8,0.5-1.7,0.7-2.7,0.9c-1.4,0.3-2.9,0.2-4.3,0.2c-0.6,0-1.2,0-1.8,0c-0.3,0-0.5,0.1-0.8,0.1c-0.5,0.1-1.1,0.1-1.6,0
		c-0.5-0.2-1-0.4-1.5-0.6c-0.7-0.3-1.5-0.7-2.3-0.9c-0.5-0.1-1-0.4-1.3-0.8c-0.3-0.3-0.7-0.6-1.1-0.8c-0.4-0.2-0.8-0.2-1.1,0.1
		c-0.4,0.4-0.8,0.6-1.4,0.6c-0.4,0-0.6,0.3-0.8,0.6c-0.3,0.6-0.5,1.1-0.8,1.7c-0.1,0.1,0,0.3,0,0.5c0.1,0.2,0.1,0.5,0.2,0.7
		c0.5,1.5,1,3,1.5,4.6c0.5,1.5,1,3.1,1.6,4.5c0.3,0.7,0.6,1.3,1.1,1.9C154,194.8,154,194.9,153.9,195.4z M142.3,178.9
		c0.2,0.1,0.3,0.2,0.4,0.2c0.5,0.4,1,0.7,1.5,1c0.2,0.1,0.4,0.2,0.7,0.2c0.5,0.1,0.9,0,1.1-0.5c0.5-0.9,0.7-1.8,0.6-2.8
		c-0.1-0.6-0.2-1.3-0.4-1.9c-0.2-0.7-0.5-1.1-1.3-1.1c-0.5,0-1,0-1.5,0.1c-0.8,0.1-1.4,0.5-1.8,1.3c-0.4,0.9-0.6,1.8-0.7,2.8
		c0,0.4,0,0.8,0,1.3c0,0.3,0.1,0.5,0.3,0.7c0.4,0.3,0.7,0.5,1.2,0.6C142.5,180,142.2,179.6,142.3,178.9z M151.4,171
		c0.1-0.7-0.3-1.1-0.7-1.6c-0.4-0.5-1-0.7-1.6-0.6c-0.9,0.1-1.6,0.5-2.2,1.3c-0.1,0.2-0.3,0.4-0.4,0.6c-0.2,0.2-0.4,0.3-0.7,0.3
		c-0.4,0-0.8-0.2-1.2-0.4c-0.4-0.2-0.9-0.4-1.3-0.6c-0.3-0.2-0.6-0.3-0.9-0.5c-0.3-0.2-0.6-0.4-0.9-0.6c-0.3-0.2-0.5-0.1-0.6,0.2
		c-0.1,0.1-0.1,0.2-0.2,0.4c-0.2,0.7-0.3,1.5-0.3,2.3c0,0.3,0.1,0.5,0.4,0.7c0.7-0.4,1.3-0.4,2-0.3c0.6,0.1,1.2,0.1,1.7,0.1
		c0.3,0,0.5,0.1,0.7,0.3c0.2,0.3,0.4,0.6,0.6,0.9c0.5-0.1,0.5-0.1,0.6-0.5c0-0.1,0-0.1,0-0.2c0-0.5,0.3-0.9,0.7-1.2
		c0.3-0.2,0.6-0.3,0.9-0.4c0.6-0.2,1.1-0.3,1.7-0.4c0.5-0.1,1.1-0.1,1.5,0.3C151.2,171,151.3,171,151.4,171z M148.7,179.9
		c0.1-0.1,0.2-0.1,0.3-0.2c0.2-0.2,0.3-0.4,0.5-0.6c0.5-0.5,0.5-1.1,0.2-1.8c-0.2-0.3-0.4-0.6-0.6-1c-0.1-0.2-0.2-0.4-0.3-0.7
		c-0.2-0.5,0.1-0.9,0.6-0.7c0.4,0.1,0.8,0.1,1.2,0c0.2,0,0.4-0.1,0.6-0.3c0.1-0.2,0.3-0.3,0.4-0.5c0.2-0.2,0.4-0.2,0.7-0.1
		c0.1,0.1,0.3,0.1,0.4,0.2c0.1-0.2,0.1-0.3,0-0.4c-0.4-0.9-1.1-1.5-2-1.8c-0.4-0.1-0.8-0.1-1.2,0c-0.5,0.1-0.9,0.3-1.2,0.6
		c-0.3,0.2-0.5,0.5-0.6,0.9c-0.1,0.4-0.1,0.9,0,1.3c0.2,0.7,0.3,1.5,0.5,2.2c0.1,0.5,0.2,0.9,0.2,1.4c0,0.3,0,0.6,0,0.8
		C148.5,179.6,148.5,179.8,148.7,179.9z M105.6,136.8c-1.1,0.2-2.1,0.8-3.1,1.4c-0.1,0.1-0.2,0.2-0.3,0.3c-0.3,0.4-0.3,0.7,0.1,1
		c0.4,0.4,0.9,0.6,1.4,0.7c2.1,0.6,4.3,1.3,6.4,2c0.9,0.3,1.7,0.6,2.5,1c1.9,1,3.7,2.3,5.3,3.7c0.8,0.7,1.5,1.4,2.2,2.1
		c0.3,0.3,0.5,0.8,0.4,1.2c0,0.3-0.1,0.5-0.2,0.8c-0.1,0.3-0.1,0.5-0.1,0.8c-0.1,0.5,0.1,0.9,0.4,1.2c0.9,1,1.8,2,2.7,3
		c0.5,0.6,1.1,1.1,1.6,1.6c0.4,0.4,0.9,0.7,1.4,0.9c1,0.4,2,0.8,3.1,1.2c1,0.4,2.1,0.7,3.2,0.8c0.5,0,0.9,0,1.4-0.2
		c0.7-0.3,0.9-0.9,0.6-1.6c-0.1-0.2-0.2-0.3-0.2-0.5c-0.3-0.5-0.5-1-0.8-1.6c-1.1-2.1-2.1-4.3-3.3-6.3c-1-1.7-2.1-3.5-3.3-5.1
		c-0.7-0.8-1.4-1.6-2.3-2.2c-1-0.7-2-1.3-3-1.9c-3.1-1.8-6.5-3.1-10-4c-1.4-0.3-2.8-0.5-4.4-0.6
		C106.8,136.7,106.2,136.7,105.6,136.8z M154.3,123.4c1.1,0,2.2,0.1,3.3,0.2c0.6,0.1,1,0.2,1.4,0.6c0.7,0.7,1.6,1.2,2.5,1.5
		c0.9,0.4,1.8,0.7,2.7,1.1c1,0.4,2,0.9,2.7,1.6c0.3,0.3,0.6,0.5,0.9,0.7c0.8,0.6,1.7,1.1,2.7,1.3c0.7,0.1,1.5,0.3,2.2,0.4
		c1.1,0.2,2.3,0.3,3.4,0.4c0.5,0.1,1.1,0,1.6-0.2c0.3-0.1,0.6-0.2,0.7-0.6c-0.2-0.8-0.6-1.3-1.4-1.5c-0.8-0.2-1.4-0.7-1.9-1.3
		c-0.2-0.3-0.5-0.6-0.7-0.9c-0.8-0.8-1.5-1.6-2.3-2.5c-1-1.1-2.2-2.1-3.5-2.9c-1.4-0.9-2.8-1.6-4.3-2.3c-0.7-0.3-1.5-0.7-2.3-0.9
		c-0.7-0.2-1.5-0.2-2.2,0.1c-1,0.4-2,0.9-3,1.4c-0.3,0.1-0.5,0.3-0.7,0.5c-0.6,0.4-1,1-1.4,1.6c-0.3,0.4-0.6,0.9-1,1.2
		c-0.1,0.1-0.1,0.1-0.1,0.2C153.8,123.4,154.1,123.4,154.3,123.4z M171,136.4c-0.1-0.8-0.4-1.5-0.8-2.2c-0.5-0.9-1.1-1.8-1.7-2.7
		c-0.5-0.7-1-1.3-1.8-1.7c-0.5-0.3-1-0.5-1.6-0.8c-0.6-0.3-1.2-0.5-1.8-0.8c-1.2-0.7-2.5-1.3-3.7-1.9c-0.6-0.2-1.1-0.5-1.6-0.8
		c-0.3-0.1-0.6-0.2-0.9-0.2c-0.4,0-0.7,0.2-0.6,0.7c0,0.1,0.1,0.2,0.1,0.3c0.2,0.9,0.5,1.8,0.7,2.8c0.2,1.3,0.7,2.5,1.5,3.6
		c0.5,0.7,1,1.5,1.4,2.2c0.3,0.4,0.6,0.8,1,1.1c0.4,0.3,0.9,0.7,1.4,1c0.8,0.5,1.6,1,2.4,1.5c0.6,0.4,1.1,1,1.5,1.6
		c0.4,0.7,0.6,1.4,0.8,2.1c0.2,0.6,0.4,1.1,0.8,1.6c0.2,0.2,0.3,0.5,0.5,0.8c0.2,0.4,0.5,0.9,0.7,1.3c0.1,0.2,0.3,0.4,0.5,0.6
		c0.2,0.2,0.5,0.2,0.7,0c0.2-0.2,0.4-0.5,0.4-0.8c0-0.4,0-0.7-0.2-1c-0.3-0.6-0.3-1.3-0.3-2c0.1-1.6,0.3-3.2,0.5-4.7
		c0.1-0.4,0.1-0.8,0.2-1.2C171,136.6,171,136.5,171,136.4z"/>
	<path class="st2" d="M143.7,159.9c0,1.4-0.5,2.4-1.5,3.1c-0.3,0.3-0.7,0.3-1,0.2c-0.3-0.1-0.6-0.2-0.9-0.4
		c-0.3-0.2-0.6-0.4-0.7-0.8c-0.1-0.3-0.3-0.7-0.4-1c-0.1-0.2-0.2-0.3-0.3-0.5c-0.1-0.1-0.2-0.1-0.3-0.1c-0.2,0-0.2,0.1-0.2,0.3
		c0,0.1,0,0.3,0,0.4c0.1,0.4,0.2,0.7,0.2,1.1c0.1,0.3,0.1,0.6,0.1,1c0,0.5-0.4,0.7-0.8,0.4c-0.3-0.2-0.6-0.5-0.7-0.8
		c-0.3-0.8-0.5-1.7-0.2-2.6c0.1-0.5,0.4-0.9,0.8-1.2c0.6-0.4,1.2-0.8,1.8-1.2c0.5-0.4,1.1-0.4,1.7-0.3c0.6,0.1,1.1,0.4,1.5,0.8
		C143.4,158.8,143.7,159.4,143.7,159.9z M148.5,153.1c-0.2-0.6-0.4-1.1-0.9-1.5c-0.4-0.4-0.9-0.5-1.5-0.4c-0.9,0.2-1.6,0.8-2.2,1.4
		c-0.3,0.4-0.4,0.8-0.3,1.3c0.1,0.3,0.2,0.5,0.3,0.8c0.1,0.1,0.2,0.2,0.3,0.3c0.3,0.2,0.7,0.5,1,0.7c0.3-0.1,0.6-0.2,0.8-0.4
		c0.6-0.3,1.2-0.4,1.8-0.2c0.2,0.1,0.5,0.1,0.8,0C148.7,154.6,148.7,153.9,148.5,153.1z M150,159.4c0.1-0.2,0.2-0.4,0-0.7
		c-0.3-0.5-0.5-1-0.8-1.5c-0.2-0.3-0.4-0.5-0.7-0.6c-1-0.3-2.5-0.1-3,1.1c-0.1,0.1-0.1,0.2-0.2,0.4c-0.2,0.2-0.2,0.5-0.2,0.8
		c0,0.4,0.1,0.7,0.2,1.1c0.4,1,0.7,1.2,1.9,1.1C148.3,161.1,149.3,160.5,150,159.4z M147.4,116.6c-0.3-0.3-0.8-0.5-1.2-0.6
		c-0.2-0.1-0.4,0-0.5,0.1c-0.5,0.4-0.6,1-0.8,1.6c0,0,0,0.1,0,0.1c0.1,0.6,1.1,1.2,1.6,1c0,0,0.1,0,0.1-0.1c0.6-0.4,0.9-0.9,1-1.5
		C147.7,116.9,147.6,116.8,147.4,116.6z M144.8,122.3c-0.1-0.1-0.2-0.3-0.3-0.4c-0.5-0.6-0.9-1.3-1.1-2.1c-0.1-0.3-0.2-0.6-0.4-0.9
		c-0.1-0.2-0.3-0.3-0.4-0.4c-0.1-0.1-0.3-0.1-0.4,0c-0.1,0.1-0.1,0.2-0.1,0.4c0.1,0.4,0.2,0.8,0.3,1.1c0.1,0.7,0.4,1.3,0.7,2
		c0.3,0.8,1.1,1.1,2,1C144.9,122.7,144.9,122.5,144.8,122.3z M150.7,118c-0.2-0.3-0.5-0.5-0.8-0.7c-0.3-0.2-0.5-0.1-0.7,0.1
		c-0.2,0.3-0.4,0.6-0.5,1c0,0.1,0,0.2,0,0.3c0.1,0.5,0.7,0.8,1.2,0.6c0.3-0.2,0.6-0.4,0.9-0.6c0.1-0.1,0.1-0.2,0.2-0.3
		C150.9,118.3,150.8,118.1,150.7,118z M148.2,163c0.1,0,0.3,0,0.4,0c0.3-0.1,0.7-0.2,1-0.3c0.3-0.1,0.3-0.4,0.2-0.6
		c-0.1-0.4-0.3-0.5-0.6-0.4c-0.6,0.2-1.3,0.2-1.9,0.2c-0.3,0-0.5,0.2-0.3,0.5c0.1,0.3,0.3,0.5,0.5,0.6
		C147.7,163,147.9,163,148.2,163C148.2,163.1,148.2,163.1,148.2,163z M146,124.5c-0.1,0.4,0.1,0.6,0.4,0.7c0.1,0,0.3,0.1,0.4,0.1
		c0.5,0.1,0.7-0.1,0.8-0.5c0-0.2,0-0.3,0-0.5c0-0.4-0.2-0.6-0.6-0.5c-0.3,0-0.5,0.1-0.8,0.1C146.1,124.2,146,124.3,146,124.5z
		 M151.9,105.8c0,0.4,0.3,0.7,0.7,0.9c0.2,0.1,0.4,0,0.5-0.2c0.2-0.4,0.2-0.7,0.3-1.2c-0.2-0.2-0.5-0.3-0.8-0.5
		C152.1,105,151.9,105.3,151.9,105.8z M146.7,121.1c0,0.2,0.2,0.3,0.3,0.4c0.2,0.1,0.4,0,0.5-0.1c0.3-0.2,0.3-0.5,0.3-0.8
		c0-0.3-0.2-0.4-0.4-0.5c-0.2,0-0.5,0-0.7,0.1C146.7,120.6,146.7,120.9,146.7,121.1z M151.1,105.4c0.1-0.3-0.3-0.9-0.7-0.9
		c-0.1,0-0.2,0.1-0.3,0.2c-0.1,0.3-0.1,0.6-0.2,0.9c0,0.2,0.1,0.3,0.3,0.4c0.1,0,0.2,0,0.2,0C150.8,106,151.1,105.8,151.1,105.4z
		 M142.6,179.2c0.5,0.4,1,0.7,1.5,1c0.2,0.1,0.4,0.2,0.7,0.2c0.5,0.1,0.9,0,1.1-0.5c0.5-0.9,0.7-1.8,0.6-2.8
		c-0.1-0.6-0.2-1.3-0.4-1.9c-0.2-0.7-0.5-1.1-1.3-1.1c-0.5,0-1,0-1.5,0.1c-0.8,0.1-1.4,0.5-1.8,1.3c-0.4,0.9-0.6,1.8-0.7,2.8
		c0,0.4,0,0.8,0,1.3c0,0.3,0.1,0.5,0.3,0.7c0.4,0.3,0.7,0.5,1.2,0.6c-0.1-0.6-0.4-1.1-0.3-1.7C142.4,179,142.5,179.1,142.6,179.2z
		 M150.7,169.4c-0.4-0.5-1-0.7-1.6-0.6c-0.9,0.1-1.6,0.5-2.2,1.3c-0.1,0.2-0.3,0.4-0.4,0.6c-0.2,0.2-0.4,0.3-0.7,0.3
		c-0.4,0-0.8-0.2-1.2-0.4c-0.4-0.2-0.9-0.4-1.3-0.6c-0.3-0.2-0.6-0.3-0.9-0.5c-0.3-0.2-0.6-0.4-0.9-0.6c-0.3-0.2-0.5-0.1-0.6,0.2
		c-0.1,0.1-0.1,0.2-0.2,0.4c-0.2,0.7-0.3,1.5-0.3,2.3c0,0.3,0.1,0.5,0.4,0.7c0.7-0.4,1.3-0.4,2-0.3c0.6,0.1,1.2,0.1,1.7,0.1
		c0.3,0,0.5,0.1,0.7,0.3c0.2,0.3,0.4,0.6,0.6,0.9c0.5-0.1,0.5-0.1,0.6-0.5c0-0.1,0-0.1,0-0.2c0-0.5,0.3-0.9,0.7-1.2
		c0.3-0.2,0.6-0.3,0.9-0.4c0.6-0.2,1.1-0.3,1.7-0.4c0.5-0.1,1.1-0.1,1.5,0.3c0,0,0,0,0.1,0C151.4,170.3,151.1,169.9,150.7,169.4z
		 M149.1,179.7c0.2-0.2,0.3-0.4,0.5-0.6c0.5-0.5,0.5-1.1,0.2-1.8c-0.2-0.3-0.4-0.6-0.6-1c-0.1-0.2-0.2-0.4-0.3-0.7
		c-0.2-0.5,0.1-0.9,0.6-0.7c0.4,0.1,0.8,0.1,1.2,0c0.2,0,0.4-0.1,0.6-0.3c0.1-0.2,0.3-0.3,0.4-0.5c0.2-0.2,0.4-0.2,0.7-0.1
		c0.1,0.1,0.3,0.1,0.4,0.2c0.1-0.2,0.1-0.3,0-0.4c-0.4-0.9-1.1-1.5-2-1.8c-0.4-0.1-0.8-0.1-1.2,0c-0.5,0.1-0.9,0.3-1.2,0.6
		c-0.3,0.2-0.5,0.5-0.6,0.9c-0.1,0.4-0.1,0.9,0,1.3c0.2,0.7,0.3,1.5,0.5,2.2c0.1,0.5,0.2,0.9,0.2,1.4c0,0.3,0,0.6,0,0.8
		c0,0.2,0.1,0.4,0.3,0.5C148.8,179.9,149,179.8,149.1,179.7z"/>
</g>
</svg>
